<?xml version="1.0" encoding="UTF-8" standalone="no"?>
<svg
   width="22"
   height="22"
   version="1.1"
   id="svg7"
   sodipodi:docname="mintupdate-installing.svg"
   inkscape:version="1.1 (1:1.1+202105261517+ce6663b3b7)"
   xmlns:inkscape="http://www.inkscape.org/namespaces/inkscape"
   xmlns:sodipodi="http://sodipodi.sourceforge.net/DTD/sodipodi-0.dtd"
   xmlns="http://www.w3.org/2000/svg"
   xmlns:svg="http://www.w3.org/2000/svg">
  <sodipodi:namedview
     id="namedview9"
     pagecolor="#ffffff"
     bordercolor="#666666"
     borderopacity="1.0"
     inkscape:pageshadow="2"
     inkscape:pageopacity="0.0"
     inkscape:pagecheckerboard="0"
     showgrid="false"
     inkscape:zoom="31"
     inkscape:cx="11.016129"
     inkscape:cy="11"
     inkscape:window-width="1600"
     inkscape:window-height="847"
     inkscape:window-x="0"
     inkscape:window-y="26"
     inkscape:window-maximized="1"
     inkscape:current-layer="svg7" />
  <defs
     id="defs3">
    <style
       id="current-color-scheme"
       type="text/css">.ColorScheme-Text { color:#363636; } .ColorScheme-Highlight { color:#5294e2; }</style>
    <linearGradient
       id="_lgradient_0"
       x1="0"
       y1="0.5"
       x2="1"
       y2="0.5"
       gradientTransform="matrix(46,0,0,46,-69.151029,33.692978)"
       gradientUnits="userSpaceOnUse">
      <stop
         offset="0%"
         stop-opacity="1"
         style="stop-color:rgb(88,0,226)"
         id="stop2-3" />
      <stop
         offset="100%"
         stop-opacity="1"
         style="stop-color:rgb(255,0,230)"
         id="stop4-5" />
    </linearGradient>
  </defs>
  <path
     id="mintupdate-installing"
     style="isolation:isolate;fill:#c3c7d1;fill-opacity:1;stroke-width:0.434777"
     d="M 10.999681,1 C 9.1344839,1 7.3043239,1.5218271 5.7173842,2.5087729 L 5.6651552,2.5412589 5.7651412,2.039396 C 5.8586128,1.5689657 5.5528328,1.1106786 5.0824042,1.0172 4.6119742,0.9237286 4.1543228,1.2295086 4.0608442,1.6999386 L 3.6532399,3.7303171 c -0.094343,0.47043 0.1912357,0.9967886 0.6368829,1.1750472 L 6.3300556,5.7218471 C 6.7739628,5.8992357 7.2799159,5.68239 7.4586099,5.23718 7.6373029,4.7919657 7.4204529,4.2841657 6.9739428,4.1041671 L 6.6548656,3.9767957 C 7.9600689,3.1659343 9.4627329,2.7393343 10.999673,2.7393343 c 1.399984,0 2.77407,0.3522214 3.995797,1.0304757 0.419994,0.2326057 0.950083,0.080543 1.182689,-0.3394586 0.232607,-0.4199957 0.08054,-0.9500828 -0.339458,-1.18269 C 14.356107,1.4302786 12.690959,1.00001 10.999673,1.00001 Z m 6.769418,3.1914143 c -0.479995,0 -0.869345,0.38935 -0.869345,0.8693443 0,0.4799957 0.38935,0.86998 0.869345,0.86998 0.479995,0 0.86998,-0.3899843 0.86998,-0.86998 0,-0.4799943 -0.389985,-0.8693443 -0.86998,-0.8693443 z m -7.9947779,0.38213 c -0.3378222,0 -0.6120442,0.2742214 -0.6120442,0.6120428 V 11.53912 h -2.090246 c -1.1269439,0 -1.4372667,0.687332 -0.6929267,1.532976 l 3.2722987,3.720026 c 0.7443401,0.846078 1.9522181,0.846078 2.6965571,0 l 3.272299,-3.720026 c 0.74434,-0.845644 0.433582,-1.532976 -0.692928,-1.532976 H 12.837086 V 8.8852342 c 0,-0.337822 -0.274859,-0.612043 -0.61268,-0.612043 -0.338257,0 -0.612682,0.274221 -0.612682,0.612043 v 3.8786098 h 1.992167 c 0.225649,0 0.295165,0.144035 0.156036,0.320989 l -2.50804,3.18823 c -0.139128,0.17739 -0.365281,0.17739 -0.504411,0 l -2.5086771,-3.18823 c -0.139558,-0.176954 -0.06917,-0.320989 0.156035,-0.320989 H 10.387001 V 5.1855871 c 0,-0.3378214 -0.274422,-0.6120428 -0.6126799,-0.6120428 z m 2.4500849,0 c -0.338257,0 -0.612682,0.2742214 -0.612682,0.6120428 v 0.5216072 c 0,0.3378214 0.274425,0.6120428 0.612682,0.6120428 0.337821,0 0.61268,-0.2742214 0.61268,-0.6120428 V 5.1855871 c 0,-0.3378214 -0.274859,-0.6120428 -0.61268,-0.6120428 z M 2.4992199,6.75168 C 2.1600728,6.75911 1.8418913,6.9651471 1.7088485,7.3000362 c -0.46956,1.1739 -0.7088486,2.4300938 -0.7088486,3.6996458 0,1.6652 0.4131571,3.304295 1.2088014,4.76515 0.2278243,0.42217 0.7560615,0.579412 1.1782315,0.350284 0.4221685,-0.229127 0.57817,-0.757972 0.3477371,-1.180142 -0.6521671,-1.208682 -0.9954457,-2.561394 -0.9954457,-3.935292 0,-1.047816 0.1952671,-2.0868418 0.5865671,-3.0563958 C 3.5032813,7.4967682 3.2858342,6.99021 2.8393142,6.81282 2.7276856,6.7684771 2.6122685,6.74922 2.4992199,6.7516771 Z M 19.595039,6.9414714 c -0.112943,-0.005 -0.228233,0.012143 -0.340732,0.054129 -0.449996,0.1678238 -0.678604,0.6683998 -0.51078,1.1170908 0.343474,0.926077 0.517149,1.9000388 0.517149,2.8869848 0,1.299986 -0.304159,2.582734 -0.895456,3.743591 -0.218259,0.426952 -0.04804,0.951693 0.380219,1.169952 0.428255,0.21826 0.95132,0.04864 1.167404,-0.378307 C 20.630227,14.130579 21,12.573572 21,10.999676 21,9.808384 20.786984,8.6263062 20.373944,7.5089272 20.248073,7.1704512 19.93386,6.9563829 19.595039,6.9414657 Z m -4.711015,9.2768206 c -0.307157,0.01086 -0.599401,0.185145 -0.747063,0.479571 -0.214781,0.428257 -0.04043,0.95132 0.389135,1.167406 l 0.597395,0.29997 -0.292965,0.152215 c -1.182597,0.621732 -2.496077,0.94322 -3.830845,0.94322 -1.2869421,0 -2.5562911,-0.300002 -3.7041041,-0.878257 -0.4295613,-0.216085 -0.9532313,-0.04234 -1.1693156,0.387225 -0.2160843,0.42956 -0.042971,0.953227 0.3865872,1.169312 C 7.9041389,20.638944 9.4431759,21 10.999681,21 c 1.513028,0 3.003789,-0.34272 4.36073,-1.000541 -0.07174,0.456517 0.229809,0.891841 0.687196,0.982708 0.47043,0.09349 0.928082,-0.211674 1.021559,-0.682101 l 0.394865,-1.973696 c 0.09392,-0.47043 -0.178024,-1.0263 -0.607584,-1.240646 l -1.55654,-0.776995 c -0.133428,-0.06671 -0.276267,-0.09539 -0.415883,-0.09044 z M 4.6041142,16.699774 c -0.4799943,0 -0.8693443,0.389349 -0.8693443,0.869343 0,0.479995 0.38935,0.86998 0.8693443,0.86998 0.4799943,0 0.86998,-0.389985 0.86998,-0.86998 0,-0.479994 -0.3899857,-0.869343 -0.86998,-0.869343 z" />
</svg>
