<?xml version="1.0" encoding="UTF-8" standalone="no"?>
<svg
   height="16"
   width="16"
   version="1.1"
   id="svg4"
   sodipodi:docname="software-update-available-symbolic.svg"
   inkscape:version="1.1 (1:1.1+202105261517+ce6663b3b7)"
   xmlns:inkscape="http://www.inkscape.org/namespaces/inkscape"
   xmlns:sodipodi="http://sodipodi.sourceforge.net/DTD/sodipodi-0.dtd"
   xmlns="http://www.w3.org/2000/svg"
   xmlns:svg="http://www.w3.org/2000/svg">
  <defs
     id="defs8">
    <linearGradient
       id="_lgradient_15"
       x1="0.18336116"
       y1="0.24917752"
       x2="0.9027437"
       y2="0.90347725"
       gradientTransform="scale(48)"
       gradientUnits="userSpaceOnUse">
      <stop
         offset="2.608695652173913%"
         stop-opacity="1"
         style="stop-color:rgb(179,255,171)"
         id="stop2" />
      <stop
         offset="98.69565217391305%"
         stop-opacity="1"
         style="stop-color:rgb(18,255,247)"
         id="stop4" />
    </linearGradient>
  </defs>
  <sodipodi:namedview
     id="namedview6"
     pagecolor="#ffffff"
     bordercolor="#666666"
     borderopacity="1.0"
     inkscape:pageshadow="2"
     inkscape:pageopacity="0.0"
     inkscape:pagecheckerboard="0"
     showgrid="false"
     inkscape:zoom="42.625"
     inkscape:cx="7.8709677"
     inkscape:cy="8"
     inkscape:window-width="1600"
     inkscape:window-height="847"
     inkscape:window-x="0"
     inkscape:window-y="26"
     inkscape:window-maximized="1"
     inkscape:current-layer="svg4" />
  <path
     id="software-update-available-symbolic"
     style="isolation:isolate;fill:#c3c7d1;stroke-width:0.291666;fill-opacity:1"
     d="m 8.0262534,1.0001165 c -1.05953,-0.004 -2.105948,0.231448 -3.060792,0.690003 -0.302458,0.145833 -0.429097,0.510164 -0.283264,0.812622 0.146125,0.302459 0.510165,0.431057 0.812623,0.286682 0.842042,-0.406583 1.768415,-0.600456 2.702332,-0.568664 0.900083,0.03092 1.781063,0.270861 2.5703126,0.70282 0.295458,0.161291 0.666284,0.05249 0.827576,-0.242676 0.161291,-0.295459 0.05236,-0.666284 -0.243103,-0.827576 -0.956376,-0.522958 -2.0245516,-0.812324 -3.1133426,-0.849365 -0.07073,-0.0024 -0.141707,-0.0036 -0.212342,-0.0038 z m -4.476258,1.63849 c -0.322011,0.0054 -0.586698,0.262673 -0.597717,0.58789 -0.01167,0.335708 0.251754,0.617667 0.587463,0.629334 0.336,0.01138 0.617532,-0.252182 0.628907,-0.587891 0.01137,-0.335708 -0.251756,-0.617958 -0.587464,-0.629333 -0.0105,-3.5e-4 -0.0208,-1.75e-4 -0.031189,0 z m 9.0704366,0.309326 c -0.321763,0.0052 -0.587125,0.262673 -0.598145,0.587891 -0.01138,0.335708 0.252182,0.617531 0.587891,0.628906 0.335708,0.01138 0.617667,-0.251464 0.629333,-0.587464 0.01137,-0.335708 -0.252182,-0.617531 -0.58789,-0.628906 -0.01049,-3.5e-4 -0.02081,-5.91e-4 -0.03119,-4.37e-4 z m -4.6206676,0.740845 c -0.327513,0 -0.654813,0.141745 -0.90448,0.425537 l -2.194764,2.495118 c -0.499334,0.567291 -0.291156,1.028381 0.464844,1.028381 h 1.402222 v 4.2622085 c 0,0.226625 0.183959,0.411011 0.410584,0.411011 0.226916,0 0.41101,-0.184386 0.41101,-0.411011 V 6.8162195 h -1.336853 c -0.151083,0 -0.197873,-0.09662 -0.104248,-0.215332 l 1.682495,-2.138368 c 0.09333,-0.119 0.245473,-0.119 0.338807,0 l 1.682495,2.138368 c 0.09333,0.118708 0.0467,0.215332 -0.104675,0.215332 h -1.336426 v 2.601929 c 0,0.226625 0.184094,0.410584 0.411011,0.410584 0.226625,0 0.410583,-0.183959 0.410583,-0.410584 v -1.780335 h 1.4026486 c 0.755709,0 0.964178,-0.46109 0.464844,-1.028381 L 8.9046714,4.1143145 c -0.249666,-0.283792 -0.577394,-0.425537 -0.904907,-0.425537 z m -5.590944,0.612671 c -0.215806,-0.0019 -0.425305,0.111674 -0.536194,0.313598 -0.535499,0.965417 -0.830966,2.0452 -0.868591,3.146241 -0.02829,0.833584 0.09241,1.665937 0.354615,2.4575205 0.10675,0.319376 0.452387,0.492553 0.771179,0.385803 0.318792,-0.10675 0.490708,-0.451981 0.383667,-0.7698975 -0.218167,-0.655959 -0.316424,-1.341316 -0.293091,-2.031983 0.03121,-0.909417 0.274773,-1.799229 0.716065,-2.597229 0.163041,-0.293709 0.05618,-0.664534 -0.238404,-0.827576 -0.09206,-0.05095 -0.191151,-0.07561 -0.289246,-0.07648 z m 11.3314236,0.237549 c -0.0981,-0.0034 -0.198174,0.01715 -0.292237,0.06409 -0.301,0.150209 -0.422811,0.516322 -0.271728,0.817323 0.427583,0.861291 0.635375,1.815339 0.602417,2.776672 -0.02479,0.732959 -0.186299,1.455185 -0.483215,2.1242685 -0.135042,0.308 0.0056,0.667618 0.313598,0.802369 0.308,0.135041 0.667619,-0.0056 0.802369,-0.313599 0.356708,-0.8102505 0.554139,-1.6834705 0.584472,-2.5715955 0.03967,-1.164917 -0.210372,-2.321469 -0.731872,-3.362427 -0.102867,-0.206938 -0.307988,-0.329597 -0.523804,-0.337097 z M 8.8217864,11.139524 c -0.226917,0 -0.411011,0.183958 -0.411011,0.410583 v 0.349915 c 0,0.226625 0.184094,0.411011 0.411011,0.411011 0.226625,0 0.410583,-0.184386 0.410583,-0.411011 v -0.349915 c 0,-0.226625 -0.183958,-0.410583 -0.410583,-0.410583 z m -5.710145,0.245239 c -0.321763,0.0054 -0.586698,0.262673 -0.597718,0.587891 -0.01137,0.335708 0.251463,0.617666 0.587464,0.629333 0.335708,0.01138 0.617531,-0.252182 0.628906,-0.58789 0.01167,-0.335709 -0.251755,-0.617532 -0.587464,-0.628907 -0.01049,-3.5e-4 -0.02081,-6.12e-4 -0.03119,-4.37e-4 z m 9.7442026,0.332397 c -0.321746,0.0054 -0.586843,0.262674 -0.598144,0.587891 -0.01137,0.335709 0.252182,0.617531 0.58789,0.628906 0.335709,0.01138 0.617532,-0.251755 0.628907,-0.587463 0.01138,-0.335708 -0.251756,-0.617667 -0.587464,-0.629334 -0.01049,-3.5e-4 -0.02081,-1.75e-4 -0.03119,0 z m -8.1104136,1.159547 c -0.215892,-0.0091 -0.430102,0.09711 -0.549011,0.295227 -0.172667,0.288166 -0.07882,0.662599 0.20935,0.835266 1.017626,0.60725 2.1723,0.948397 3.355592,0.988647 1.304917,0.04462 2.5978586,-0.276937 3.7315676,-0.929687 0.291666,-0.168 0.391741,-0.540494 0.22345,-0.830994 -0.168292,-0.2905 -0.541755,-0.3917 -0.833131,-0.225159 -0.9350826,0.54075 -2.0004026,0.806221 -3.0804446,0.769471 -0.979416,-0.03354 -1.932149,-0.312759 -2.770691,-0.816468 -0.09014,-0.05396 -0.188549,-0.08216 -0.286682,-0.0863 z" />
</svg>
