<?xml version="1.0" encoding="UTF-8" standalone="no"?>
<svg
   width="16"
   height="16"
   version="1.1"
   id="svg4"
   sodipodi:docname="software-update-urgent-symbolic.svg"
   inkscape:version="1.1 (1:1.1+202105261517+ce6663b3b7)"
   xmlns:inkscape="http://www.inkscape.org/namespaces/inkscape"
   xmlns:sodipodi="http://sodipodi.sourceforge.net/DTD/sodipodi-0.dtd"
   xmlns:xlink="http://www.w3.org/1999/xlink"
   xmlns="http://www.w3.org/2000/svg"
   xmlns:svg="http://www.w3.org/2000/svg">
  <defs
     id="defs8">
    <linearGradient
       inkscape:collect="always"
       xlink:href="#linearGradient946"
       id="linearGradient2453"
       gradientUnits="userSpaceOnUse"
       gradientTransform="matrix(14.000003,0,0,14.000133,0.99990338,0.99994304)"
       x1="0.18336116"
       y1="0.24917752"
       x2="0.9027437"
       y2="0.90347725" />
    <linearGradient
       id="linearGradient946"
       x1="0.18336116"
       y1="0.24917752"
       x2="0.9027437"
       y2="0.90347725"
       gradientTransform="matrix(48,0,0,48,5.812421,2.9999551)"
       gradientUnits="userSpaceOnUse">
      <stop
         offset="2.608695652173913%"
         stop-opacity="1"
         style="stop-color:#fdd32b;stop-opacity:1"
         id="stop2-6" />
      <stop
         offset="98.69565217391305%"
         stop-opacity="1"
         style="stop-color:#fd7b2b;stop-opacity:1"
         id="stop4-7" />
    </linearGradient>
  </defs>
  <sodipodi:namedview
     id="namedview6"
     pagecolor="#ffffff"
     bordercolor="#666666"
     borderopacity="1.0"
     inkscape:pageshadow="2"
     inkscape:pageopacity="0.0"
     inkscape:pagecheckerboard="0"
     showgrid="false"
     inkscape:zoom="42.625"
     inkscape:cx="7.9882698"
     inkscape:cy="8"
     inkscape:window-width="1600"
     inkscape:window-height="847"
     inkscape:window-x="0"
     inkscape:window-y="26"
     inkscape:window-maximized="1"
     inkscape:current-layer="svg4" />
  <path
     id="path2425"
     style="isolation:isolate;fill:url(#linearGradient2453);stroke-width:0.291668"
     d="m 8.0262534,1.000049 c -1.05953,-0.004 -2.10552,0.231877 -3.060364,0.690436 -0.302459,0.145835 -0.429525,0.510169 -0.283692,0.81263 0.146125,0.302461 0.510164,0.430634 0.812623,0.286257 0.842042,-0.406587 1.768415,-0.600461 2.702332,-0.568669 0.9000834,0.03092 1.7810627,0.270864 2.5703126,0.702826 0.295458,0.161293 0.666284,0.05249 0.827576,-0.242678 C 11.756333,2.385389 11.647401,2.01456 11.351938,1.853267 10.395563,1.330304 9.3273867,1.040936 8.2385944,1.003894 c -0.07073,-0.0024 -0.141706,-0.0036 -0.212341,-0.0038 z m -4.476258,1.638504 c -0.322011,0.0054 -0.586698,0.262676 -0.597717,0.587896 -0.01167,0.335712 0.251755,0.617673 0.587463,0.62934 0.336,0.01138 0.617959,-0.252185 0.629334,-0.587896 0.01138,-0.335712 -0.251755,-0.617537 -0.587464,-0.628912 -0.0105,-3.5e-4 -0.02123,-6.13e-4 -0.03162,-4.38e-4 z m 9.0704366,0.309329 c -0.321763,0.0052 -0.586698,0.262676 -0.597718,0.587896 -0.01138,0.335712 0.251755,0.617538 0.587464,0.628913 0.335708,0.01138 0.617667,-0.251466 0.629333,-0.587469 C 13.250881,3.24151 12.987329,2.959684 12.65162,2.948309 12.64113,2.947938 12.63081,2.947719 12.62043,2.947872 Z M 6.9162684,3.665235 v 3.250947 l 0.541748,2.16744 h 1.083924 L 9.0836877,6.916182 V 3.665235 Z m -4.507448,0.636176 c -0.215806,-0.0019 -0.425305,0.111675 -0.536193,0.313601 -0.535501,0.965426 -0.830967,2.045218 -0.868592,3.146271 -0.02829,0.833591 0.09241,1.665952 0.354614,2.457543 0.10675,0.319377 0.452388,0.492558 0.77118,0.385806 0.318791,-0.106751 0.490708,-0.451985 0.383667,-0.769904 -0.218167,-0.655965 -0.316424,-1.341329 -0.293091,-2.032002 0.03121,-0.909425 0.274773,-1.799246 0.716064,-2.597254 0.163042,-0.293711 0.05618,-0.66454 -0.238403,-0.827583 -0.09206,-0.05095 -0.191152,-0.07562 -0.289246,-0.07648 z M 13.740671,4.538962 c -0.0981,-0.0034 -0.198601,0.01715 -0.292664,0.06409 -0.301,0.15021 -0.422811,0.516327 -0.271728,0.81733 0.427583,0.8613 0.635802,1.815356 0.602844,2.776699 -0.02479,0.732965 -0.186298,1.455198 -0.483215,2.124288 -0.135042,0.308002 0.0052,0.667624 0.313171,0.802375 0.308,0.135043 0.667619,-0.0056 0.802369,-0.313601 0.356708,-0.810258 0.554139,-1.683486 0.584472,-2.571619 0.03967,-1.164928 -0.210372,-2.32149 -0.731872,-3.362459 -0.102868,-0.206939 -0.307561,-0.3296 -0.523377,-0.3371 z m -5.7404796,5.628593 a 1.0836682,1.0836783 0 0 0 0,2.167013 1.0836682,1.0836783 0 0 0 0,-2.167013 z m -4.888551,1.217236 c -0.321763,0.0054 -0.586697,0.262676 -0.597717,0.587896 -0.01138,0.335712 0.251891,0.617673 0.587891,0.62934 0.335708,0.01137 0.617104,-0.252185 0.628479,-0.587897 0.01167,-0.335711 -0.251328,-0.617537 -0.587036,-0.628912 -0.01049,-3.5e-4 -0.02124,-6.12e-4 -0.03162,-4.37e-4 z m 9.7442036,0.332401 c -0.321746,0.0054 -0.586415,0.262675 -0.597717,0.587896 -0.01137,0.335711 0.251755,0.617537 0.587463,0.628912 0.335709,0.01138 0.617959,-0.251758 0.629334,-0.587469 0.01138,-0.335711 -0.252182,-0.617673 -0.587891,-0.629339 -0.01049,-3.5e-4 -0.02081,-1.75e-4 -0.03119,0 z m -8.1693736,1.159984 c -0.195257,0.0106 -0.381952,0.114697 -0.490051,0.294802 -0.172667,0.28817 -0.07882,0.663033 0.20935,0.835702 1.017625,0.607255 2.1723,0.947979 3.355592,0.988229 1.3049165,0.04463 2.5978586,-0.276513 3.7315676,-0.929269 0.291667,-0.168001 0.391742,-0.540926 0.22345,-0.831428 -0.168292,-0.290503 -0.541755,-0.391277 -0.83313,-0.224734 -0.9350838,0.540755 -2.0004031,0.805801 -3.0804456,0.76905 -0.979416,-0.03354 -1.932149,-0.312762 -2.770691,-0.816475 -0.108172,-0.06475 -0.228488,-0.09224 -0.345642,-0.08588 z" />
</svg>
