<?xml version="1.0" encoding="UTF-8" standalone="no"?>
<svg
   width="22"
   height="22"
   enable-background="new"
   version="1.1"
   id="svg8"
   sodipodi:docname="update-none.svg"
   inkscape:version="1.1 (1:1.1+202105261517+ce6663b3b7)"
   xmlns:inkscape="http://www.inkscape.org/namespaces/inkscape"
   xmlns:sodipodi="http://sodipodi.sourceforge.net/DTD/sodipodi-0.dtd"
   xmlns="http://www.w3.org/2000/svg"
   xmlns:svg="http://www.w3.org/2000/svg"
   xmlns:rdf="http://www.w3.org/1999/02/22-rdf-syntax-ns#"
   xmlns:cc="http://creativecommons.org/ns#"
   xmlns:dc="http://purl.org/dc/elements/1.1/">
  <defs
     id="defs12">
    <linearGradient
       id="linearGradient2535"
       x1="0.18336116"
       y1="0.24917752"
       x2="0.9027437"
       y2="0.90347725"
       gradientTransform="scale(48)"
       gradientUnits="userSpaceOnUse">
      <stop
         offset="2.608695652173913%"
         stop-opacity="1"
         style="stop-color:#c3c7d1;stop-opacity:1"
         id="stop2-36" />
      <stop
         offset="98.69565217391305%"
         stop-opacity="1"
         style="stop-color:#c3c7d1;stop-opacity:1"
         id="stop4-0" />
    </linearGradient>
  </defs>
  <sodipodi:namedview
     id="namedview10"
     pagecolor="#ffffff"
     bordercolor="#666666"
     borderopacity="1.0"
     inkscape:pageshadow="2"
     inkscape:pageopacity="0.0"
     inkscape:pagecheckerboard="0"
     showgrid="false"
     inkscape:zoom="31"
     inkscape:cx="11.016129"
     inkscape:cy="11"
     inkscape:window-width="1600"
     inkscape:window-height="847"
     inkscape:window-x="0"
     inkscape:window-y="26"
     inkscape:window-maximized="1"
     inkscape:current-layer="svg8" />
  <title
     id="title2">Paper Symbolic Icon Theme</title>
  <metadata
     id="metadata829">
    <rdf:RDF>
      <cc:Work
         rdf:about="">
        <dc:title>Paper Symbolic Icon Theme</dc:title>
      </cc:Work>
    </rdf:RDF>
  </metadata>
  <path
     id="update-none"
     style="isolation:isolate;fill:#c3c7d1;fill-opacity:1;stroke-width:0.434778"
     d="M 10.999682,1 C 9.1344848,1 7.3043241,1.5218272 5.7173842,2.5087731 L 5.6651562,2.5412541 5.7651472,2.039391 C 5.8586251,1.5689609 5.5528396,1.1106737 5.0824096,1.0171963 4.6119805,0.92371915 4.1543295,1.2295037 4.0608514,1.6999328 L 3.6532477,3.7303124 C 3.558901,4.2007422 3.8444814,4.7271005 4.2901295,4.9053595 L 6.3300617,5.7218422 C 6.77397,5.8992316 7.2799225,5.6823859 7.4586162,5.2371752 7.63731,4.7919621 7.4204645,4.2841601 6.9739492,4.104162 L 6.6548713,3.9767858 C 7.9600752,3.1659239 9.4627388,2.739324 10.99968,2.739324 c 1.399985,0 2.774069,0.3522216 3.995797,1.0304754 0.419993,0.2326053 0.950082,0.080538 1.182689,-0.3394582 C 16.410775,3.0103459 16.25871,2.4802578 15.83871,2.2476518 14.356118,1.4302691 12.690968,1 10.999682,1 Z m 6.769417,3.1914152 c -0.479994,0 -0.869343,0.389349 -0.869343,0.8693439 0,0.479995 0.389349,0.8699808 0.869343,0.8699808 0.479996,0 0.86998,-0.3899858 0.86998,-0.8699808 0,-0.4799949 -0.389984,-0.8693439 -0.86998,-0.8693439 z m -6.769417,0.3821291 c -0.488212,0 -0.976109,0.211295 -1.3482782,0.6343345 L 6.3797412,8.9272687 C 5.6354005,9.7729119 5.9457242,10.460242 7.0726687,10.460242 h 2.0902461 v 6.353536 c 0,0.33782 0.274221,0.61268 0.612044,0.61268 0.3382582,0 0.6126812,-0.27486 0.6126812,-0.61268 V 9.235519 H 8.3948357 c -0.225215,0 -0.294963,-0.144034 -0.1553993,-0.3209877 L 10.747478,5.7269375 c 0.139129,-0.1773893 0.365918,-0.1773893 0.505048,0 l 2.50804,3.1875938 c 0.139129,0.1769537 0.06962,0.3209877 -0.156038,0.3209877 h -1.992166 v 3.878612 c 0,0.337824 0.274425,0.612044 0.612683,0.612044 0.337821,0 0.612042,-0.27422 0.612042,-0.612044 v -2.653889 h 2.090882 c 1.12651,0 1.437269,-0.68733 0.692929,-1.5329733 l -3.2723,-3.7193899 C 11.976428,4.7848393 11.487897,4.5735443 10.999682,4.5735443 Z M 2.4992193,6.7516804 c -0.3391463,0.00736 -0.6573282,0.2134674 -0.79037,0.548355 -0.46956,1.1739009 -0.7088491,2.4300945 -0.7088491,3.6996456 0,1.665201 0.4131572,3.304297 1.2088009,4.76515 0.2278247,0.42217 0.7560629,0.579416 1.178232,0.350287 C 3.8092022,15.88599 3.965204,15.357146 3.7347713,14.934976 3.082604,13.726295 2.739324,12.373582 2.739324,10.999681 2.739324,9.951868 2.9345921,8.9128412 3.3258921,7.9432865 3.5032821,7.496769 3.2858288,6.9902105 2.8393149,6.812821 2.7276858,6.7684744 2.6122693,6.7492277 2.4992193,6.7516804 Z M 19.595039,6.9414709 c -0.11294,-0.00498 -0.228232,0.012178 -0.340731,0.054136 -0.449994,0.1678244 -0.678603,0.6684 -0.510779,1.1170911 0.343476,0.9260769 0.517148,1.90004 0.517148,2.886983 0,1.299988 -0.304158,2.582737 -0.895457,3.743595 -0.218259,0.42695 -0.04803,0.951692 0.380219,1.16995 0.428256,0.218261 0.95132,0.04864 1.167406,-0.378306 C 20.630228,14.130587 21,12.573579 21,10.999682 21,9.808391 20.786986,8.6263126 20.373947,7.508933 20.248079,7.1704587 19.93386,6.9563905 19.595039,6.9414709 Z m -7.369994,8.7386571 c -0.338258,0 -0.612683,0.27422 -0.612683,0.612042 v 0.521608 c 0,0.33782 0.274425,0.61268 0.612683,0.61268 0.337821,0 0.612042,-0.27486 0.612042,-0.61268 V 16.29217 c 0,-0.337822 -0.274221,-0.612042 -0.612042,-0.612042 z m 2.65898,0.538166 c -0.307157,0.01089 -0.5994,0.185143 -0.747063,0.479571 -0.214781,0.428253 -0.04042,0.95132 0.389136,1.167404 l 0.597393,0.29997 -0.292964,0.152217 c -1.182597,0.621733 -2.496077,0.943223 -3.830845,0.943223 -1.2869422,0 -2.5562907,-0.300006 -3.7041048,-0.878261 -0.4295602,-0.216084 -0.9532303,-0.04233 -1.1693149,0.387225 -0.2160845,0.42956 -0.042972,0.953231 0.3865876,1.169312 C 7.9041391,20.638945 9.4431758,21 10.999682,21 c 1.513027,0 3.003787,-0.342721 4.36073,-1.000541 -0.07173,0.456517 0.229809,0.891841 0.687196,0.982709 0.470431,0.09348 0.928081,-0.211671 1.021559,-0.682099 l 0.394868,-1.973699 c 0.09391,-0.470426 -0.178026,-1.026299 -0.607586,-1.240645 l -1.556541,-0.776997 c -0.133422,-0.06671 -0.276268,-0.09539 -0.415883,-0.09043 z M 4.6041149,16.699775 c -0.4799945,0 -0.8693436,0.389351 -0.8693436,0.869344 0,0.479996 0.3893491,0.869981 0.8693436,0.869981 0.4799947,0 0.8699802,-0.389985 0.8699802,-0.869981 0,-0.479993 -0.3899855,-0.869344 -0.8699802,-0.869344 z" />
</svg>
