<?xml version="1.0" encoding="UTF-8" standalone="no"?>
<svg
   width="22"
   height="22"
   enable-background="new"
   version="1.1"
   id="svg8"
   sodipodi:docname="update-low.svg"
   inkscape:version="1.1 (1:1.1+202105261517+ce6663b3b7)"
   xmlns:inkscape="http://www.inkscape.org/namespaces/inkscape"
   xmlns:sodipodi="http://sodipodi.sourceforge.net/DTD/sodipodi-0.dtd"
   xmlns:xlink="http://www.w3.org/1999/xlink"
   xmlns="http://www.w3.org/2000/svg"
   xmlns:svg="http://www.w3.org/2000/svg"
   xmlns:rdf="http://www.w3.org/1999/02/22-rdf-syntax-ns#"
   xmlns:cc="http://creativecommons.org/ns#"
   xmlns:dc="http://purl.org/dc/elements/1.1/">
  <defs
     id="defs12">
    <linearGradient
       inkscape:collect="always"
       xlink:href="#linearGradient2535"
       id="linearGradient2539"
       gradientUnits="userSpaceOnUse"
       gradientTransform="matrix(20.869344,0,0,-20.869344,0.6585758,21.88075)"
       x1="0.17888613"
       y1="0.77219236"
       x2="0.8982687"
       y2="0.11789265" />
    <linearGradient
       id="linearGradient2535"
       x1="0.18336116"
       y1="0.24917752"
       x2="0.9027437"
       y2="0.90347725"
       gradientTransform="scale(48)"
       gradientUnits="userSpaceOnUse">
      <stop
         offset="2.608695652173913%"
         stop-opacity="1"
         style="stop-color:#affbe3;stop-opacity:1"
         id="stop2-36" />
      <stop
         offset="98.69565217391305%"
         stop-opacity="1"
         style="stop-color:#42a3f2;stop-opacity:1"
         id="stop4-0" />
    </linearGradient>
  </defs>
  <sodipodi:namedview
     id="namedview10"
     pagecolor="#ffffff"
     bordercolor="#666666"
     borderopacity="1.0"
     inkscape:pageshadow="2"
     inkscape:pageopacity="0.0"
     inkscape:pagecheckerboard="0"
     showgrid="false"
     inkscape:zoom="31"
     inkscape:cx="11.016129"
     inkscape:cy="11"
     inkscape:window-width="1600"
     inkscape:window-height="847"
     inkscape:window-x="0"
     inkscape:window-y="26"
     inkscape:window-maximized="1"
     inkscape:current-layer="svg8" />
  <title
     id="title2">Paper Symbolic Icon Theme</title>
  <metadata
     id="metadata829">
    <rdf:RDF>
      <cc:Work
         rdf:about="">
        <dc:title>Paper Symbolic Icon Theme</dc:title>
      </cc:Work>
    </rdf:RDF>
  </metadata>
  <path
     id="path971-6"
     style="isolation:isolate;fill:url(#linearGradient2539);fill-opacity:1;stroke-width:0.434777"
     d="m 10.999681,1.0000004 c -1.8651964,0 -3.6953574,0.521827 -5.282297,1.508773 l -0.05222,0.03248 0.09999,-0.501863 C 5.858634,1.5689603 5.552846,1.1106733 5.082416,1.0171953 4.611986,0.9237153 4.154335,1.2295033 4.060858,1.6999323 l -0.407605,2.030381 c -0.094346,0.470429 0.191235,0.996788 0.636882,1.175047 l 2.0399326,0.816482 c 0.443909,0.1773899 0.949861,-0.03946 1.128555,-0.484667 0.178694,-0.445213 -0.03815,-0.953015 -0.484667,-1.133013 L 6.6548736,3.9767854 c 1.305204,-0.810862 2.807867,-1.2374621 4.3448074,-1.2374621 1.399984,0 2.77407,0.352222 3.995797,1.0304751 0.419996,0.232606 0.950085,0.08054 1.182689,-0.3394581 0.232608,-0.419995 0.08054,-0.9500829 -0.339456,-1.1826889 -1.482593,-0.817383 -3.147744,-1.247652 -4.83903,-1.247651 z m 6.769418,3.191415 c -0.479995,0 -0.869344,0.389349 -0.869344,0.869344 0,0.479995 0.389349,0.8699805 0.869344,0.8699805 0.479995,0 0.869981,-0.3899855 0.869981,-0.8699805 0,-0.479995 -0.389985,-0.869344 -0.869981,-0.869344 z m -6.769418,0.382129 c -0.488213,0 -0.976108,0.211295 -1.3482774,0.634334 L 6.3797396,8.9272686 C 5.6354,9.7729126 5.945723,10.460244 7.0726686,10.460244 h 2.090246 v 6.353533 c 0,0.337823 0.274221,0.612682 0.612043,0.612682 0.3382564,0 0.6126804,-0.274859 0.6126804,-0.612682 V 9.2355196 H 8.3948356 c -0.225215,0 -0.294963,-0.144034 -0.155399,-0.320989 L 10.747476,5.7269373 c 0.139129,-0.177389 0.365919,-0.177389 0.505048,0 l 2.508041,3.1875933 c 0.139129,0.176955 0.06961,0.320989 -0.156037,0.320989 h -1.992166 v 3.8786124 c 0,0.337822 0.274423,0.612042 0.61268,0.612042 0.337823,0 0.612043,-0.27422 0.612043,-0.612042 v -2.653888 h 2.090884 c 1.126509,0 1.437267,-0.6873314 0.692927,-1.5329754 l -3.2723,-3.7193903 C 11.976427,4.7848394 11.487895,4.5735444 10.999681,4.5735444 Z M 2.4992194,6.7516802 C 2.1600726,6.7590402 1.8418912,6.9651476 1.7088491,7.3000354 1.2392888,8.4739366 0.9999998,9.7301306 0.9999998,10.999683 c 0,1.6652 0.4131577,3.304295 1.2088014,4.765149 0.2278241,0.422171 0.756062,0.579415 1.1782314,0.350285 C 3.809202,15.885992 3.965203,15.357146 3.73477,14.934975 3.0826032,13.726295 2.7393238,12.373583 2.7393238,10.999683 c 0,-1.0478154 0.195268,-2.0868424 0.5865681,-3.0563964 C 3.5032815,7.4967696 3.285832,6.9902104 2.8393146,6.812821 2.7276853,6.768474 2.6122686,6.749228 2.4992194,6.7516802 Z M 19.595039,6.9414708 c -0.11294,-0.00497 -0.228234,0.012178 -0.340732,0.054135 -0.449996,0.1678242 -0.678604,0.6683998 -0.510779,1.1170908 0.343474,0.926078 0.517148,1.9000404 0.517148,2.8869864 0,1.299987 -0.304158,2.582734 -0.895456,3.74359 -0.218259,0.426952 -0.04804,0.951696 0.380218,1.169953 0.428256,0.218261 0.95132,0.04864 1.167405,-0.378307 C 20.630226,14.130586 21,12.57358 21,10.999683 21,9.8083906 20.786984,8.6263126 20.373945,7.5089326 20.248077,7.1704581 19.93386,6.9563899 19.595039,6.9414708 Z m -7.369997,8.7386582 c -0.338258,0 -0.61268,0.274218 -0.61268,0.612042 v 0.521605 c 0,0.337823 0.274423,0.612682 0.61268,0.612682 0.337823,0 0.612043,-0.274859 0.612043,-0.612682 v -0.521605 c 0,-0.337824 -0.274221,-0.612043 -0.612043,-0.612042 z m 2.658981,0.538165 c -0.307155,0.01089 -0.599401,0.185143 -0.747062,0.479571 -0.21478,0.428255 -0.04042,0.951319 0.389135,1.167404 l 0.597395,0.299971 -0.292965,0.152216 c -1.182596,0.621734 -2.496077,0.943221 -3.830845,0.943221 -1.2869424,0 -2.5562904,-0.300006 -3.7041044,-0.87826 -0.42956,-0.216085 -0.95323,-0.04234 -1.1693156,0.387224 -0.216084,0.42956 -0.04297,0.953231 0.3865876,1.169313 C 7.9041386,20.638945 9.4431756,21 10.999681,21 c 1.513027,0 3.003788,-0.34272 4.36073,-1.00054 -0.07174,0.456517 0.229809,0.891842 0.687196,0.982708 0.47043,0.09348 0.928081,-0.211671 1.021558,-0.682098 l 0.394867,-1.973699 c 0.09391,-0.470428 -0.178024,-1.026299 -0.607585,-1.240646 L 15.299908,16.30873 C 15.166485,16.24202 15.02364,16.21334 14.884023,16.21829 Z M 4.6041141,16.699775 c -0.479994,0 -0.869344,0.389351 -0.869344,0.869346 0,0.479994 0.38935,0.869981 0.869344,0.869981 0.479995,0 0.86998,-0.389987 0.86998,-0.869981 0,-0.479995 -0.389985,-0.869346 -0.86998,-0.869346 z" />
</svg>
