<?xml version="1.0" encoding="UTF-8" standalone="no"?>
<svg
   width="22"
   height="22"
   enable-background="new"
   version="1.1"
   id="svg8"
   sodipodi:docname="update-medium.svg"
   inkscape:version="1.1 (1:1.1+202105261517+ce6663b3b7)"
   xmlns:inkscape="http://www.inkscape.org/namespaces/inkscape"
   xmlns:sodipodi="http://sodipodi.sourceforge.net/DTD/sodipodi-0.dtd"
   xmlns:xlink="http://www.w3.org/1999/xlink"
   xmlns="http://www.w3.org/2000/svg"
   xmlns:svg="http://www.w3.org/2000/svg"
   xmlns:rdf="http://www.w3.org/1999/02/22-rdf-syntax-ns#"
   xmlns:cc="http://creativecommons.org/ns#"
   xmlns:dc="http://purl.org/dc/elements/1.1/">
  <defs
     id="defs12">
    <linearGradient
       inkscape:collect="always"
       xlink:href="#linearGradient2535"
       id="linearGradient2539"
       gradientUnits="userSpaceOnUse"
       gradientTransform="matrix(20.869344,0,0,-20.869344,0.658576,21.880749)"
       x1="0.17888613"
       y1="0.77219236"
       x2="0.8982687"
       y2="0.11789265" />
    <linearGradient
       id="linearGradient2535"
       x1="0.18336116"
       y1="0.24917752"
       x2="0.9027437"
       y2="0.90347725"
       gradientTransform="scale(48)"
       gradientUnits="userSpaceOnUse">
      <stop
         offset="2.608695652173913%"
         stop-opacity="1"
         style="stop-color:#fdd32b;stop-opacity:1"
         id="stop2-36" />
      <stop
         offset="98.69565217391305%"
         stop-opacity="1"
         style="stop-color:#fd7b2b;stop-opacity:1"
         id="stop4-0" />
    </linearGradient>
  </defs>
  <sodipodi:namedview
     id="namedview10"
     pagecolor="#ffffff"
     bordercolor="#666666"
     borderopacity="1.0"
     inkscape:pageshadow="2"
     inkscape:pageopacity="0.0"
     inkscape:pagecheckerboard="0"
     showgrid="false"
     inkscape:zoom="31"
     inkscape:cx="11.016129"
     inkscape:cy="11"
     inkscape:window-width="1600"
     inkscape:window-height="847"
     inkscape:window-x="0"
     inkscape:window-y="26"
     inkscape:window-maximized="1"
     inkscape:current-layer="svg8" />
  <title
     id="title2">Paper Symbolic Icon Theme</title>
  <metadata
     id="metadata829">
    <rdf:RDF>
      <cc:Work
         rdf:about="">
        <dc:title>Paper Symbolic Icon Theme</dc:title>
      </cc:Work>
    </rdf:RDF>
  </metadata>
  <path
     id="path971-6"
     style="isolation:isolate;fill:url(#linearGradient2539);fill-opacity:1;stroke-width:0.434777"
     d="m 10.999682,1.0000007 c -1.8651979,0 -3.6953586,0.521827 -5.2822983,1.508773 l -0.052225,0.03248 0.099991,-0.501863 C 5.8586277,1.5689606 5.5528419,1.1106736 5.0824121,1.0171956 4.6119823,0.92371565 4.1543315,1.2295036 4.0608538,1.6999326 l -0.4076044,2.030381 c -0.094346,0.470429 0.1912345,0.996788 0.636882,1.175047 l 2.0399323,0.816482 C 6.773972,5.8992325 7.2799245,5.6823826 7.4586182,5.2371756 7.637312,4.7919626 7.4204662,4.2841606 6.9739512,4.1041626 L 6.6548733,3.9767857 c 1.305204,-0.810862 2.8078672,-1.2374621 4.3448087,-1.2374621 1.399984,0 2.774069,0.352222 3.995796,1.0304751 0.419995,0.232606 0.950084,0.08054 1.182689,-0.3394581 0.232607,-0.419995 0.08054,-0.9500829 -0.339457,-1.1826889 -1.482593,-0.817383 -3.147743,-1.24765205 -4.839028,-1.24765205 z m 6.769417,3.191415 c -0.479995,0 -0.869344,0.389349 -0.869344,0.869344 0,0.479995 0.389349,0.8699805 0.869344,0.8699805 0.479995,0 0.86998,-0.3899855 0.86998,-0.8699805 0,-0.479995 -0.389985,-0.869344 -0.86998,-0.869344 z m -6.769417,0.382129 c -0.488214,0 -0.976109,0.211295 -1.3482789,0.634334 L 6.3797406,8.9272689 C 5.6354003,9.7729119 5.9457235,10.460243 7.0726681,10.460243 h 2.0902465 v 6.353533 c 0,0.337823 0.2742206,0.612682 0.6120431,0.612682 0.3382573,0 0.6126803,-0.274859 0.6126803,-0.612682 V 9.2355195 H 8.3948351 c -0.2252152,0 -0.2949631,-0.1440337 -0.1553994,-0.3209883 L 10.747476,5.7269376 c 0.139129,-0.177389 0.365919,-0.177389 0.505048,0 l 2.50804,3.1875936 c 0.13913,0.1769546 0.06961,0.3209883 -0.156036,0.3209883 h -1.992166 v 3.8786115 c 0,0.337822 0.274423,0.612042 0.61268,0.612042 0.337823,0 0.612044,-0.27422 0.612044,-0.612042 v -2.653888 h 2.090883 c 1.126509,0 1.437267,-0.6873311 0.692927,-1.5329741 L 12.348597,5.2078786 C 11.976427,4.7848397 11.487895,4.5735447 10.999682,4.5735447 Z M 2.4992196,6.7516805 C 2.1600728,6.7590405 1.8418914,6.9651479 1.7088493,7.3000356 1.239289,8.4739363 1,9.7301304 1,10.999682 c 0,1.6652 0.4131577,3.304295 1.2088014,4.765149 0.2278241,0.422171 0.756062,0.579415 1.1782314,0.350285 0.422169,-0.229125 0.5781704,-0.757971 0.3477376,-1.180141 C 3.0826034,13.726294 2.739324,12.373582 2.739324,10.999682 2.739324,9.9518672 2.934592,8.9128412 3.3258921,7.9432867 3.5032816,7.4967693 3.2858321,6.9902107 2.8393147,6.8128213 2.7276854,6.7684743 2.6122688,6.7492283 2.4992196,6.7516805 Z M 19.595039,6.9414711 c -0.11294,-0.00497 -0.228234,0.012178 -0.340732,0.054135 -0.449996,0.1678242 -0.678604,0.6683999 -0.510779,1.1170908 0.343474,0.9260771 0.517148,1.900039 0.517148,2.886985 0,1.299987 -0.304158,2.582734 -0.895456,3.743591 -0.218259,0.426951 -0.04804,0.951695 0.380218,1.169952 0.428256,0.218261 0.95132,0.04864 1.167405,-0.378306 C 20.630226,14.130585 21,12.573579 21,10.999682 21,9.8083905 20.786984,8.6263125 20.373945,7.508933 20.248077,7.1704584 19.93386,6.9563902 19.595039,6.9414711 Z m -7.369997,8.7386569 c -0.338257,0 -0.61268,0.274219 -0.61268,0.612042 v 0.521606 c 0,0.337823 0.274423,0.612682 0.61268,0.612682 0.337823,0 0.612044,-0.274859 0.612044,-0.612682 V 16.29217 c 0,-0.337823 -0.274221,-0.612042 -0.612044,-0.612042 z m 2.658981,0.538165 c -0.307155,0.01089 -0.599401,0.185143 -0.747062,0.479571 -0.21478,0.428255 -0.04042,0.951319 0.389135,1.167404 l 0.597395,0.299971 -0.292965,0.152216 c -1.182596,0.621734 -2.496076,0.943222 -3.830844,0.943222 -1.2869436,0 -2.5562915,-0.300006 -3.7041054,-0.87826 -0.4295602,-0.216085 -0.9532304,-0.04234 -1.169315,0.387224 -0.2160847,0.42956 -0.042973,0.953231 0.3865876,1.169313 C 7.9041384,20.638945 9.4431756,21 10.999682,21 c 1.513027,0 3.003787,-0.34272 4.360729,-1.000541 -0.07174,0.456517 0.229809,0.891842 0.687196,0.982708 0.47043,0.09348 0.928081,-0.211671 1.021558,-0.682098 l 0.394867,-1.973699 c 0.09391,-0.470428 -0.178024,-1.026299 -0.607585,-1.240646 l -1.556539,-0.776995 c -0.133423,-0.06671 -0.276268,-0.09539 -0.415885,-0.09044 z M 4.6041142,16.699774 c -0.4799944,0 -0.8693438,0.389351 -0.8693438,0.869346 0,0.479994 0.3893494,0.869981 0.8693438,0.869981 0.479995,0 0.8699804,-0.389987 0.8699804,-0.869981 0,-0.479995 -0.3899854,-0.869346 -0.8699804,-0.869346 z" />
</svg>
