<?xml version="1.0" encoding="UTF-8" standalone="no"?>
<svg
   width="192"
   height="192"
   viewBox="0 0 192 192"
   fill="none"
   version="1.1"
   id="svg84"
   sodipodi:docname="genymotion.svg"
   inkscape:version="1.1 (1:1.1+202105261517+ce6663b3b7)"
   xmlns:inkscape="http://www.inkscape.org/namespaces/inkscape"
   xmlns:sodipodi="http://sodipodi.sourceforge.net/DTD/sodipodi-0.dtd"
   xmlns:xlink="http://www.w3.org/1999/xlink"
   xmlns="http://www.w3.org/2000/svg"
   xmlns:svg="http://www.w3.org/2000/svg">
  <sodipodi:namedview
     id="namedview86"
     pagecolor="#ffffff"
     bordercolor="#666666"
     borderopacity="1.0"
     inkscape:pageshadow="2"
     inkscape:pageopacity="0.0"
     inkscape:pagecheckerboard="0"
     showgrid="false"
     inkscape:zoom="3.5520833"
     inkscape:cx="95.859238"
     inkscape:cy="96"
     inkscape:window-width="1600"
     inkscape:window-height="847"
     inkscape:window-x="0"
     inkscape:window-y="26"
     inkscape:window-maximized="1"
     inkscape:current-layer="svg84" />
  <path
     d="M87.1219 18.9418L87.1277 18.9412C104.024 17.0455 121.537 20.7354 136.037 29.6351L136.039 29.6367C149.632 37.9234 160.666 50.4159 166.987 65.0423L166.989 65.0467C175.453 84.3753 175.484 107.215 167.133 126.587L167.132 126.59C160.552 141.964 148.813 155.046 134.292 163.341L134.288 163.344C119.941 171.623 102.863 174.95 86.4259 172.92L86.4208 172.919C70.0648 170.983 54.4259 163.549 42.5363 152.139L42.5308 152.134C30.3192 140.588 22.0092 124.96 19.4334 108.338L19.4324 108.331C16.3892 89.5332 20.4598 69.6274 30.9377 53.7204L30.9377 53.7205L30.9427 53.7127C43.3093 34.5569 64.438 21.3533 87.1219 18.9418ZM136.7 13.5165C119.431 4.90433 99.4255 2.05328 80.4251 5.30754C50.3371 10.2099 23.5848 31.254 11.615 59.2868C2.7439 79.4921 1.58992 102.932 8.32981 123.94C14.7533 144.312 28.5591 162.24 46.6195 173.642C75.7984 192.66 115.814 192.713 145.045 173.779C162.435 162.814 175.976 145.862 182.729 126.433C190.402 104.712 189.491 80.0937 180.163 59.0182C171.598 39.3781 155.927 22.9665 136.7 13.5165Z"
     fill="url(#paint0_linear)"
     stroke="url(#paint1_linear)"
     stroke-width="2"
     id="path2"
     style="stroke:none;fill-opacity:1.0" />
  <path
     id="path1119"
     style="fill:url(#linearGradient1114);fill-opacity:1;stroke:none;stroke-width:0.91316"
     d="m 128.98242,54.84375 c -2.06068,0.02386 -4.11845,0.208623 -6.15039,0.556641 -12.8707,2.097074 -24.315243,11.100249 -29.435546,23.091797 -3.794777,8.64319 -4.289362,18.669692 -1.40625,27.656252 2.747767,8.7145 8.655186,16.38235 16.380856,21.25976 12.48181,8.1353 29.59748,8.15797 42.10157,0.0586 7.43889,-4.69049 13.23237,-11.94085 16.12109,-20.25196 3.28227,-9.291556 2.89255,-19.822453 -1.09766,-28.837887 -3.66384,-8.401434 -10.36708,-15.422432 -18.59179,-19.464844 -5.54035,-2.763011 -11.73984,-4.139941 -17.92188,-4.068359 z m -0.41015,10.634766 c 5.50848,-0.163751 11.06353,1.244089 15.76367,4.128906 5.0356,3.069845 9.12319,7.69877 11.46484,13.117187 h 0.002 c 3.13552,7.160368 3.14645,15.622397 0.0527,22.798831 -2.43761,5.69537 -6.78664,10.54232 -12.16602,13.61523 h -0.002 c -5.31491,3.06699 -11.64128,4.30085 -17.73047,3.54883 l -0.002,-0.002 c -6.05916,-0.71721 -11.85325,-3.47038 -16.25781,-7.69727 l -0.002,-0.002 c -4.52366,-4.27692 -7.60243,-10.06693 -8.55664,-16.224611 v -0.002 c -1.12734,-6.963118 0.38013,-14.33765 4.26172,-20.230469 l 0.002,-0.002 c 4.58148,-7.096545 12.40915,-11.989462 20.8125,-12.882813 h 0.002 c 0.78241,-0.08778 1.56854,-0.142622 2.35547,-0.166015 z" />
  <path
     id="path1119-3"
     style="fill:url(#linearGradient1309);fill-opacity:1;stroke:none;stroke-width:0.675348"
     d="m 51.814453,75.335938 c -1.524019,0.01765 -3.04606,0.152772 -4.548828,0.410156 -9.518806,1.550938 -17.982698,8.209513 -21.769531,17.078125 -2.80651,6.392261 -3.171331,13.806911 -1.039063,20.453121 2.032172,6.44499 6.399595,12.11741 12.113281,15.72461 9.2312,6.01664 21.890996,6.03298 31.138672,0.043 5.501598,-3.46895 9.785455,-8.83184 11.921875,-14.97851 2.42747,-6.87178 2.140514,-14.660567 -0.810547,-21.328129 -2.70967,-6.213468 -7.667239,-11.404877 -13.75,-14.394531 -4.097489,-2.043446 -8.6838,-3.060752 -13.255859,-3.007812 z m -0.253906,9.404296 c 3.778416,-0.112321 7.588556,0.85326 10.8125,2.832032 3.454042,2.105687 6.257087,5.279461 7.863281,8.996093 l 0.002,0.002 c 2.150739,4.911481 2.157195,10.714221 0.03516,15.636721 v 0.002 c -1.672016,3.9066 -4.653895,7.23009 -8.34375,9.3379 h -0.002 c -3.645634,2.10371 -7.985376,2.94944 -12.162109,2.43359 h -0.002 c -4.156134,-0.49194 -8.129188,-2.38192 -11.150391,-5.28125 h -0.002 c -3.102896,-2.93365 -5.214623,-6.90519 -5.86914,-11.12891 v -0.002 c -0.773275,-4.77618 0.261345,-9.83492 2.923828,-13.876957 l 0.002,-0.002 c 3.142552,-4.867704 8.511312,-8.221212 14.27539,-8.833984 l 0.002,-0.002 c 0.536679,-0.06021 1.075461,-0.09724 1.615235,-0.113282 z" />
  <defs
     id="defs82">
    <linearGradient
       id="paint0_linear"
       x1="95.943901"
       y1="186.94299"
       x2="95.943901"
       y2="5"
       gradientUnits="userSpaceOnUse"
       xlink:href="#paint1_linear">
      <stop
         stop-color="#A93AFF"
         id="stop72" />
      <stop
         offset="1"
         stop-color="#FF81FF"
         id="stop74" />
    </linearGradient>
    <linearGradient
       id="paint1_linear"
       x1="95.9439"
       y1="186.943"
       x2="95.9439"
       y2="5"
       gradientUnits="userSpaceOnUse">
      <stop
         stop-color="#A93AFF"
         id="stop77" />
      <stop
         offset="1"
         stop-color="#FF81FF"
         id="stop79" />
    </linearGradient>
    <linearGradient
       inkscape:collect="always"
       xlink:href="#paint0_linear"
       id="linearGradient1114"
       gradientUnits="userSpaceOnUse"
       x1="95.943901"
       y1="186.94299"
       x2="95.943901"
       y2="5"
       gradientTransform="matrix(0.42776846,0,0,0.42776846,88.427816,53.1303)" />
    <linearGradient
       inkscape:collect="always"
       xlink:href="#paint0_linear"
       id="linearGradient1309"
       gradientUnits="userSpaceOnUse"
       gradientTransform="matrix(0.31636555,0,0,0.31636555,21.822175,74.067633)"
       x1="95.943901"
       y1="186.94299"
       x2="95.943901"
       y2="5" />
  </defs>
</svg>
