<?xml version="1.0" encoding="UTF-8" standalone="no"?>
<svg
   width="128"
   height="128"
   viewBox="0 0 128 128"
   fill="none"
   version="1.1"
   id="svg16"
   sodipodi:docname="thunderbird.svg"
   inkscape:version="1.1 (c4e8f9ed74, 2021-05-24)"
   xmlns:inkscape="http://www.inkscape.org/namespaces/inkscape"
   xmlns:sodipodi="http://sodipodi.sourceforge.net/DTD/sodipodi-0.dtd"
   xmlns:xlink="http://www.w3.org/1999/xlink"
   xmlns="http://www.w3.org/2000/svg"
   xmlns:svg="http://www.w3.org/2000/svg">
  <sodipodi:namedview
     id="namedview18"
     pagecolor="#ffffff"
     bordercolor="#666666"
     borderopacity="1.0"
     inkscape:pageshadow="2"
     inkscape:pageopacity="0.0"
     inkscape:pagecheckerboard="0"
     showgrid="false"
     inkscape:zoom="2"
     inkscape:cx="65.5"
     inkscape:cy="29.25"
     inkscape:window-width="1600"
     inkscape:window-height="848"
     inkscape:window-x="0"
     inkscape:window-y="28"
     inkscape:window-maximized="1"
     inkscape:current-layer="svg16" />
  <defs
     id="defs14">
    <linearGradient
       id="paint0_linear"
       x1="64.186"
       y1="101.479"
       x2="74.7387"
       y2="10.096"
       gradientUnits="userSpaceOnUse">
      <stop
         stop-color="#71e4e0"
         id="stop6"
         style="stop-color:#71e4e0;stop-opacity:1" />
      <stop
         offset="1"
         stop-color="#2061bd"
         id="stop8"
         style="stop-color:#2061bd;stop-opacity:1" />
    </linearGradient>
    <linearGradient
       inkscape:collect="always"
       xlink:href="#paint0_linear"
       id="linearGradient843-3"
       gradientUnits="userSpaceOnUse"
       x1="64.185997"
       y1="101.479"
       x2="83.872002"
       y2="8.7720261"
       gradientTransform="matrix(0.99998108,0,0,1.0168858,-5.9988521e-7,-1.080435)" />
  </defs>
  <path
     style="color:#000000;fill:url(#linearGradient843-3);stroke-width:6.05039;-inkscape-stroke:none"
     d="m 126.55761,54.399531 c -1.25798,-6.548847 -3.66193,-12.814796 -7.09887,-18.499188 -0.95998,-1.757178 -2.22396,-3.416736 -3.30094,-4.984062 -7.19986,-10.26648 -12.89575,-13.721248 -13.99473,-14.334023 -0.97498,-0.71304 -1.97497,-1.391405 -2.996952,-2.033772 C 89.870298,8.653223 83.870413,7.839714 83.870413,7.839714 80.145583,6.271798 76.254857,5.147112 72.275932,4.488058 c -6.698473,-0.813508 -12.298368,-0.710457 -17.194275,0 0.799985,-1.426345 1.498572,-1.93072 1.695968,-2.033771 0.0906,0 0.127998,0 0,0 -2.399955,0.200672 -5.2959,1.827689 -7.893251,3.454707 1.797366,-3.557749 5.599894,-5.58610004 6.095885,-5.89523304 h 0.101398 C 52.079014,-0.18689904 43.583175,1.743829 36.287313,9.976567 13.594442,19.635559 -5.9988523e-7,40.786785 -5.9988523e-7,63.852502 -5.9988523e-7,81.337549 6.6985424,93.941442 13.994434,102.27685 c 6.89587,7.62563 14.495726,11.69318 18.095658,12.81073 0.373293,0.15152 1.199977,0.20033 1.199977,0.20033 0.096,-0.30405 -4.602613,-7.92866 -6.698573,-17.078191 4.197221,4.371181 9.194526,7.727921 14.79442,8.336021 0.597289,0.10779 -1.999962,-3.14624 -4.799909,-7.419502 l 3.797228,1.323272 41.689912,14.1276 c -4.101323,4.26888 -9.599819,8.43913 -17.098377,12.09484 0,0 16.799682,-1.42161 25.092828,-10.87458 C 86.67036,123.72704 77.374535,128 77.374535,128 c 6.794572,-1.01892 24.788535,-6.41045 36.186315,-20.9448 12.99676,-16.465414 16.89568,-31.916588 12.99676,-52.661059 z M 93.368928,92.927302 c -1.30137,6.399567 -1.53981,9.381888 -7.635691,16.192998 L 9.6454154,83.314914 c -2.095961,-6.806423 -3.144209,-9.700308 -2.54688,-18.952648 1.295975,2.440526 5.1945306,4.474298 7.5944856,4.571919 C 9.0931574,56.22718 9.6729794,50.231661 13.8702,44.43948 c 1.836765,2.741524 4.872442,7.317578 6.701408,10.064492 l 0.419994,-5.186125 c 0.101298,-0.813509 0.797578,-4.474991 0.994874,-5.082377 -1.898664,-2.84728 -2.608541,-4.183614 -3.803118,-5.908252 2.062761,-2.355921 3.00854,-2.405113 5.709489,-3.956271 0.096,1.122642 0.298694,2.136782 0.597389,3.357045 0.399992,1.73013 0.50129,4.268277 0.298594,6.302049 v -0.09762 c 0,0.406754 -0.096,0.813508 -0.197296,1.220263 -0.101298,0.406754 -1.199977,1.523905 -1.498672,4.474297 -0.303994,3.150923 0.799985,4.881052 1.898664,6.198937 1.295976,-1.220264 3.69593,-4.268277 8.095847,-5.998305 4.399917,-1.827649 7.295862,-4.468908 12.895756,-7.316189 3.301238,-1.730028 6.799872,-1.523905 11.199788,-1.323273 7.893151,1.426386 18.292954,4.273666 27.988771,4.778041 0.930739,7.725491 1.082284,7.771301 2.126716,12.131511 -17.199675,6.611181 -35.495251,13.57087 -43.99649,15.805273 -0.698587,0.206123 -6.135693,-8.474676 -13.036862,-18.844166 -2.919174,2.654614 -5.031723,6.301199 -5.031723,6.301199 0,0 14.042601,21.101437 16.173541,21.728972 7.498558,-2.738779 29.763669,-10.438004 46.06206,-16.127175 -0.106698,12.500883 -2.297242,13.871368 -2.297242,13.871368 0,0 4.095922,-1.627017 8.29324,-5.895294 0,3.454768 -0.89598,12.403364 -7.999846,21.042826 0,0 3.70123,-1.014242 7.898446,-3.048014 z"
     id="path850-1"
     sodipodi:nodetypes="ccccccccccccccsccccccccccccccccccccccccccccsccccccccccccccccc" />
</svg>
