<?xml version="1.0" encoding="UTF-8" standalone="no"?>
<!-- Generator: Gravit.io -->

<svg
   style="isolation:isolate"
   viewBox="0 0 48 48"
   width="48pt"
   height="48pt"
   version="1.1"
   id="svg13"
   sodipodi:docname="folder-download.svg"
   inkscape:version="1.1 (c4e8f9ed74, 2021-05-24)"
   xmlns:inkscape="http://www.inkscape.org/namespaces/inkscape"
   xmlns:sodipodi="http://sodipodi.sourceforge.net/DTD/sodipodi-0.dtd"
   xmlns="http://www.w3.org/2000/svg"
   xmlns:svg="http://www.w3.org/2000/svg">
  <defs
     id="defs17" />
  <sodipodi:namedview
     id="namedview15"
     pagecolor="#ffffff"
     bordercolor="#666666"
     borderopacity="1.0"
     inkscape:pageshadow="2"
     inkscape:pageopacity="0.0"
     inkscape:pagecheckerboard="0"
     inkscape:document-units="pt"
     showgrid="false"
     inkscape:zoom="10.3125"
     inkscape:cx="32"
     inkscape:cy="31.951515"
     inkscape:window-width="1600"
     inkscape:window-height="848"
     inkscape:window-x="0"
     inkscape:window-y="28"
     inkscape:window-maximized="1"
     inkscape:current-layer="svg13" />
  <linearGradient
     id="_lgradient_3"
     x1="0"
     y1="0.5"
     x2="1"
     y2="0.5"
     gradientTransform="matrix(45,0,0,34,1.229,12.208)"
     gradientUnits="userSpaceOnUse">
    <stop
       offset="0%"
       stop-opacity="1"
       style="stop-color:rgb(52,148,230)"
       id="stop2" />
    <stop
       offset="98.69565217391305%"
       stop-opacity="1"
       style="stop-color:rgb(236,110,173)"
       id="stop4" />
  </linearGradient>
  <g
     id="g837"
     transform="translate(0,-5.208)">
    <path
       d="m 20.104,15.447 0.003,-0.002 25.816,0.02 c 0.169,10e-4 0.306,0.138 0.306,0.307 v 30.12 c 0,0.169 -0.137,0.306 -0.306,0.306 l -44.378,0.01 c -0.169,0 -0.307,-0.137 -0.307,-0.306 L 1.229,18.688 15.61,18.743 c 0.006,0 0.013,0 0.02,-10e-4 L 1.243,18.683 1.247,12.515 c 0,-0.169 0.138,-0.307 0.307,-0.307 H 15.61 c 0.085,0 0.209,0.041 0.277,0.092 z"
       fill-rule="evenodd"
       fill="url(#_lgradient_3)"
       id="path7"
       style="fill:url(#_lgradient_3)" />
    <path
       d="m 34.155,31.088 v 0 c 0,-0.48 0.39,-0.87 0.869,-0.87 v 0 c 0.48,0 0.87,0.39 0.87,0.87 v 0 3.591 l 2.817,-1.877 c 0.999,-0.666 2.234,-0.329 2.756,0.751 l 0.298,0.617 c 0.523,1.08 0.143,2.507 -0.847,3.185 l -6.197,4.239 c -0.793,0.541 -2.079,0.541 -2.871,0 L 25.653,37.355 C 24.662,36.677 24.282,35.25 24.805,34.17 l 0.298,-0.617 c 0.523,-1.08 1.757,-1.417 2.756,-0.751 l 2.817,1.877 v -8.809 0 c 0,-0.48 0.39,-0.87 0.87,-0.87 v 0 c 0.48,0 0.87,0.39 0.87,0.87 v 0 11.192 c 0,0.48 -0.325,0.653 -0.724,0.387 L 27.33,34.54 c -0.399,-0.266 -0.817,-0.134 -0.932,0.296 v 0 c -0.116,0.429 0.112,0.998 0.509,1.269 l 5.661,3.875 c 0.396,0.271 1.039,0.271 1.435,0 l 5.661,-3.875 c 0.396,-0.271 0.624,-0.84 0.509,-1.269 v 0 C 40.058,34.406 39.64,34.274 39.241,34.54 l -4.363,2.909 c -0.399,0.266 -0.723,0.093 -0.723,-0.387 z"
       fill="#ffffff"
       id="path9" />
    <circle
       vector-effect="non-scaling-stroke"
       cx="35.024487"
       cy="27.17411"
       r="0.86964399"
       fill="#ffffff"
       id="circle11" />
  </g>
</svg>
