<?xml version="1.0" encoding="UTF-8" standalone="no"?>
<!-- Generator: Gravit.io -->

<svg
   style="isolation:isolate"
   viewBox="0 0 48 48"
   width="48pt"
   height="48pt"
   version="1.1"
   id="svg15"
   sodipodi:docname="folder-pictures.svg"
   inkscape:version="1.1 (c4e8f9ed74, 2021-05-24)"
   xmlns:inkscape="http://www.inkscape.org/namespaces/inkscape"
   xmlns:sodipodi="http://sodipodi.sourceforge.net/DTD/sodipodi-0.dtd"
   xmlns="http://www.w3.org/2000/svg"
   xmlns:svg="http://www.w3.org/2000/svg">
  <defs
     id="defs19" />
  <sodipodi:namedview
     id="namedview17"
     pagecolor="#ffffff"
     bordercolor="#666666"
     borderopacity="1.0"
     inkscape:pageshadow="2"
     inkscape:pageopacity="0.0"
     inkscape:pagecheckerboard="0"
     inkscape:document-units="pt"
     showgrid="false"
     inkscape:zoom="10.3125"
     inkscape:cx="32"
     inkscape:cy="31.951515"
     inkscape:window-width="1600"
     inkscape:window-height="848"
     inkscape:window-x="0"
     inkscape:window-y="28"
     inkscape:window-maximized="1"
     inkscape:current-layer="svg15" />
  <linearGradient
     id="_lgradient_8"
     x1="0"
     y1="0.5"
     x2="1"
     y2="0.5"
     gradientTransform="matrix(45,0,0,34,1.229,12.208)"
     gradientUnits="userSpaceOnUse">
    <stop
       offset="0%"
       stop-opacity="1"
       style="stop-color:rgb(255,224,49)"
       id="stop2" />
    <stop
       offset="100%"
       stop-opacity="1"
       style="stop-color:rgb(250,0,117)"
       id="stop4" />
  </linearGradient>
  <g
     id="g840"
     transform="translate(0,-5.208)">
    <path
       d="m 20.104,15.447 0.003,-0.002 25.816,0.02 c 0.169,10e-4 0.306,0.138 0.306,0.307 v 30.12 c 0,0.169 -0.137,0.306 -0.306,0.306 l -44.378,0.01 c -0.169,0 -0.307,-0.137 -0.307,-0.306 L 1.229,18.688 15.61,18.743 c 0.006,0 0.013,0 0.02,-10e-4 L 1.243,18.683 1.247,12.515 c 0,-0.169 0.138,-0.307 0.307,-0.307 H 15.61 c 0.085,0 0.209,0.041 0.277,0.092 z"
       fill-rule="evenodd"
       fill="url(#_lgradient_8)"
       id="path7"
       style="fill:url(#_lgradient_8)" />
    <path
       d="m 32.455,30 v 0 c -0.552,0 -1,-0.448 -1,-1 v 0 c 0,-0.552 0.448,-1 1,-1 v 0 H 40.5 c 0.828,0 1.5,0.672 1.5,1.5 v 11.09 c 0,0.828 -0.672,1.5 -1.5,1.5 H 24 c -0.828,0 -1.5,-0.672 -1.5,-1.5 V 29.5 C 22.5,28.672 23.172,28 24,28 h 4.275 v 0 c 0.552,0 1,0.448 1,1 v 0 c 0,0.552 -0.448,1 -1,1 v 0 H 25.5 c -0.552,0 -1,0.448 -1,1 v 8.09 c 0,0.552 0.448,1 1,1 H 39 c 0.552,0 1,-0.448 1,-1 V 31 c 0,-0.552 -0.448,-1 -1,-1 z"
       fill="#ffffff"
       id="path9" />
    <path
       d="m 24.78,39.03 v 0 c -0.293,0.293 -0.767,0.293 -1.06,0 v 0 c -0.293,-0.293 -0.293,-0.767 0,-1.06 v 0 l 5.385,-4.561 c 0.632,-0.535 1.62,-0.494 2.206,0.092 l 2.615,2.615 c 0.196,0.196 0.542,0.233 0.774,0.083 l 5.05,-3.259 v 0 c 0.309,-0.276 0.784,-0.249 1.06,0.06 v 0 c 0.276,0.309 0.249,0.784 -0.06,1.06 v 0 l -5.292,3.623 c -0.683,0.467 -1.713,0.372 -2.299,-0.214 l -2.555,-2.555 c -0.196,-0.196 -0.527,-0.212 -0.741,-0.038 z"
       fill="#ffffff"
       id="path11" />
    <circle
       vector-effect="non-scaling-stroke"
       cx="36.5"
       cy="32.332893"
       r="1.25"
       fill="#ffffff"
       id="circle13" />
  </g>
</svg>
