<?xml version="1.0" encoding="UTF-8" standalone="no"?>
<!-- Generator: Gravit.io -->

<svg
   style="isolation:isolate"
   viewBox="0 0 48 48"
   width="48pt"
   height="48pt"
   version="1.1"
   id="svg11"
   sodipodi:docname="folder-music.svg"
   inkscape:version="1.1 (c4e8f9ed74, 2021-05-24)"
   xmlns:inkscape="http://www.inkscape.org/namespaces/inkscape"
   xmlns:sodipodi="http://sodipodi.sourceforge.net/DTD/sodipodi-0.dtd"
   xmlns="http://www.w3.org/2000/svg"
   xmlns:svg="http://www.w3.org/2000/svg">
  <defs
     id="defs15" />
  <sodipodi:namedview
     id="namedview13"
     pagecolor="#ffffff"
     bordercolor="#666666"
     borderopacity="1.0"
     inkscape:pageshadow="2"
     inkscape:pageopacity="0.0"
     inkscape:pagecheckerboard="0"
     inkscape:document-units="pt"
     showgrid="false"
     inkscape:zoom="10.3125"
     inkscape:cx="32"
     inkscape:cy="31.951515"
     inkscape:window-width="1600"
     inkscape:window-height="848"
     inkscape:window-x="0"
     inkscape:window-y="28"
     inkscape:window-maximized="1"
     inkscape:current-layer="svg11" />
  <linearGradient
     id="_lgradient_5"
     x1="-0.046328006088279784"
     y1="0.15974072496964342"
     x2="0.8522006595636732"
     y2="0.5360722541542304"
     gradientTransform="matrix(45,0,0,34,1.229,12.208)"
     gradientUnits="userSpaceOnUse">
    <stop
       offset="3.0434782608695654%"
       stop-opacity="1"
       style="stop-color:rgb(0,255,217)"
       id="stop2" />
    <stop
       offset="98.26086956521739%"
       stop-opacity="1"
       style="stop-color:rgb(0,255,184)"
       id="stop4" />
  </linearGradient>
  <g
     id="g834"
     transform="translate(0,-5.208)">
    <path
       d="m 20.104,15.447 0.003,-0.002 25.816,0.02 c 0.169,10e-4 0.306,0.138 0.306,0.307 v 30.12 c 0,0.169 -0.137,0.306 -0.306,0.306 l -44.378,0.01 c -0.169,0 -0.307,-0.137 -0.307,-0.306 L 1.229,18.688 15.61,18.743 c 0.006,0 0.013,0 0.02,-10e-4 L 1.243,18.683 1.247,12.515 c 0,-0.169 0.138,-0.307 0.307,-0.307 H 15.61 c 0.085,0 0.209,0.041 0.277,0.092 z"
       fill-rule="evenodd"
       fill="url(#_lgradient_5)"
       id="path7"
       style="fill:url(#_lgradient_5)" />
    <path
       d="m 41.266,25.948 c -0.467,-0.38 -1.073,-0.528 -1.664,-0.406 l -7.768,1.632 c -0.92,0.19 -1.588,1.011 -1.588,1.951 v 7.45 C 29.699,36.167 29.021,35.926 28.287,35.926 26.475,35.926 25,37.4 25,39.213 c 0,1.812 1.475,3.287 3.287,3.287 1.808,0 3.279,-1.467 3.287,-3.272 0,-0.001 0,-0.003 0,-0.004 v -7.473 l 9.098,-1.935 v 4.634 c -0.548,-0.408 -1.226,-0.649 -1.959,-0.649 -1.813,0 -3.287,1.474 -3.287,3.287 0,1.812 1.474,3.287 3.287,3.287 0.355,0 0.705,-0.057 1.04,-0.168 0.348,-0.116 0.536,-0.492 0.42,-0.84 -0.116,-0.348 -0.492,-0.536 -0.84,-0.42 -0.199,0.066 -0.408,0.1 -0.62,0.1 -1.08,0 -1.959,-0.879 -1.959,-1.959 0,-1.08 0.879,-1.959 1.959,-1.959 1.08,0 1.959,0.879 1.959,1.959 v 0.004 c 0,0.367 0.297,0.664 0.664,0.664 0.367,0 0.664,-0.297 0.664,-0.664 v -9.6 0 0 c 0,-0.601 -0.268,-1.164 -0.734,-1.544 z M 28.287,41.172 c -1.08,0 -1.959,-0.879 -1.959,-1.959 0,-1.08 0.879,-1.959 1.959,-1.959 1.08,0 1.959,0.879 1.959,1.959 0,1.08 -0.879,1.959 -1.959,1.959 z m 3.287,-12.047 c 0,-0.314 0.223,-0.587 0.532,-0.651 l 7.767,-1.632 c 0.045,-0.009 0.091,-0.014 0.136,-0.014 0.151,0 0.298,0.052 0.418,0.149 0.156,0.127 0.245,0.315 0.245,0.515 v 0.966 l -9.098,1.935 z"
       fill="#ffffff"
       id="path9" />
  </g>
</svg>
