<?xml version="1.0" encoding="UTF-8" standalone="no"?>
<!-- Generator: Gravit.io -->

<svg
   style="isolation:isolate"
   viewBox="0 0 48 48"
   width="48pt"
   height="48pt"
   version="1.1"
   id="svg11"
   sodipodi:docname="folder-games.svg"
   inkscape:version="1.1 (c4e8f9ed74, 2021-05-24)"
   xmlns:inkscape="http://www.inkscape.org/namespaces/inkscape"
   xmlns:sodipodi="http://sodipodi.sourceforge.net/DTD/sodipodi-0.dtd"
   xmlns="http://www.w3.org/2000/svg"
   xmlns:svg="http://www.w3.org/2000/svg">
  <defs
     id="defs15" />
  <sodipodi:namedview
     id="namedview13"
     pagecolor="#ffffff"
     bordercolor="#666666"
     borderopacity="1.0"
     inkscape:pageshadow="2"
     inkscape:pageopacity="0.0"
     inkscape:pagecheckerboard="0"
     inkscape:document-units="pt"
     showgrid="false"
     inkscape:zoom="10.3125"
     inkscape:cx="32"
     inkscape:cy="31.951515"
     inkscape:window-width="1600"
     inkscape:window-height="848"
     inkscape:window-x="0"
     inkscape:window-y="28"
     inkscape:window-maximized="1"
     inkscape:current-layer="svg11" />
  <linearGradient
     id="_lgradient_4"
     x1="0.5819638936634305"
     y1="0.7783106944169679"
     x2="0.2761894372629943"
     y2="0.46592981227953323"
     gradientTransform="matrix(45,0,0,34,1.229,12.208)"
     gradientUnits="userSpaceOnUse">
    <stop
       offset="0%"
       stop-opacity="1"
       style="stop-color:rgb(27,206,137)"
       id="stop2" />
    <stop
       offset="100%"
       stop-opacity="1"
       style="stop-color:rgb(78,142,213)"
       id="stop4" />
  </linearGradient>
  <g
     id="g834"
     transform="translate(0,-5.208)">
    <path
       d="m 20.104,15.447 0.003,-0.002 25.816,0.02 c 0.169,10e-4 0.306,0.138 0.306,0.307 v 30.12 c 0,0.169 -0.137,0.306 -0.306,0.306 l -44.378,0.01 c -0.169,0 -0.307,-0.137 -0.307,-0.306 L 1.229,18.688 15.61,18.743 c 0.006,0 0.013,0 0.02,-10e-4 L 1.243,18.683 1.247,12.515 c 0,-0.169 0.138,-0.307 0.307,-0.307 H 15.61 c 0.085,0 0.209,0.041 0.277,0.092 z"
       fill-rule="evenodd"
       fill="url(#_lgradient_4)"
       id="path7"
       style="fill:url(#_lgradient_4)" />
    <path
       d="m 31.001,36.484 v 0 c 0.364,0 0.66,0.295 0.66,0.659 v 0 c 0,0.364 -0.296,0.66 -0.66,0.66 v 0 h -2.732 c -0.182,0 -0.374,0.141 -0.429,0.315 l -0.726,2.309 C 26.842,41.295 25.881,42 24.971,42 h -0.445 c -0.91,0 -1.592,-0.737 -1.521,-1.644 l 0.644,-8.275 c 0.07,-0.907 0.492,-2.19 0.94,-2.863 v 0 C 25.038,28.546 26.141,28 27.051,28 h 6.319 v 0 c 0.364,0 0.659,0.296 0.659,0.66 v 0 c 0,0.364 -0.295,0.659 -0.659,0.659 v 0 h -6.273 c -0.546,0 -1.216,0.341 -1.495,0.76 v 0 c -0.28,0.42 -0.547,1.202 -0.596,1.745 l -0.75,8.2 c -0.033,0.363 0.236,0.657 0.6,0.657 h 0.214 c 0.364,0 0.748,-0.282 0.857,-0.629 l 0.825,-2.624 c 0.164,-0.521 0.74,-0.944 1.286,-0.944 h 2.963 v 0 0 0 0 z m 5.576,-7.165 v 0 c -0.364,0 -0.659,-0.295 -0.659,-0.659 v 0 c 0,-0.364 0.295,-0.66 0.659,-0.66 v 0 h 1.912 c 0.91,0 2.013,0.546 2.462,1.218 v 0 c 0.448,0.673 0.87,1.956 0.941,2.863 l 0.643,8.275 C 42.606,41.263 41.924,42 41.014,42 h -0.702 c -0.91,0 -1.964,-0.668 -2.352,-1.491 l -1.135,-2.408 c -0.078,-0.164 -0.288,-0.298 -0.47,-0.298 h -2.596 v 0 c -0.364,0 -0.659,-0.296 -0.659,-0.66 v 0 c 0,-0.364 0.295,-0.659 0.659,-0.659 v 0 h 3.011 c 0.364,0 0.786,0.267 0.941,0.597 l 1.416,3.003 c 0.155,0.33 0.577,0.597 0.941,0.597 h 0.616 c 0.364,0 0.633,-0.294 0.6,-0.657 l -0.749,-8.2 c -0.05,-0.543 -0.317,-1.325 -0.597,-1.745 v 0 c -0.279,-0.419 -0.949,-0.76 -1.495,-0.76 h -1.866 v 0 0 0 0 z m -9.803,3.159 v 0.862 h 1.083 c 0.176,0 0.319,0.143 0.319,0.32 v 1.083 h 0.863 v -1.084 c 0,-0.176 0.143,-0.319 0.319,-0.319 h 1.084 v -0.862 h -1.084 c -0.176,0 -0.319,-0.143 -0.319,-0.319 v -1.084 h -0.863 v 1.083 c 0,0.177 -0.143,0.32 -0.319,0.32 h -1.083 v 0 0 0 0 z m 10.817,0.333 c 0,-0.362 0.294,-0.656 0.657,-0.656 0.362,0 0.656,0.294 0.656,0.656 0,0.362 -0.294,0.656 -0.656,0.656 -0.363,0 -0.657,-0.294 -0.657,-0.656 v 0 0 z m -2.625,0 c 0,-0.362 0.294,-0.656 0.657,-0.656 0.362,0 0.656,0.294 0.656,0.656 0,0.362 -0.294,0.656 -0.656,0.656 -0.363,0 -0.657,-0.294 -0.657,-0.656 v 0 z m 1.969,-1.969 c 0.362,0 0.656,0.294 0.656,0.657 0,0.362 -0.294,0.656 -0.656,0.656 -0.362,0 -0.656,-0.294 -0.656,-0.656 0,-0.363 0.294,-0.657 0.656,-0.657 z m -9.078,-0.406 h 1.501 c 0.176,0 0.32,0.143 0.32,0.319 v 1.084 h 1.083 c 0.176,0 0.319,0.143 0.319,0.319 v 1.501 10e-4 0 c 0,0.176 -0.143,0.319 -0.319,0.319 h -1.084 v 1.083 c 0,0.177 -0.143,0.32 -0.319,0.32 h -1.501 c -0.176,0 -0.319,-0.143 -0.319,-0.32 v -1.083 h -1.084 c -0.176,0 -0.319,-0.143 -0.319,-0.319 v -1.501 c 0,-0.177 0.143,-0.32 0.319,-0.32 h 1.084 v -1.084 c 0,-0.176 0.143,-0.319 0.319,-0.319 v 0 0 0 0 z m 9.078,3.031 c 0.362,0 0.656,0.294 0.656,0.657 0,0.362 -0.294,0.656 -0.656,0.656 -0.362,0 -0.656,-0.294 -0.656,-0.656 0,-0.363 0.294,-0.657 0.656,-0.657 z"
       fill-rule="evenodd"
       fill="#ffffff"
       id="path9" />
  </g>
</svg>
