<?xml version="1.0" encoding="UTF-8" standalone="no"?>
<!-- Generator: Gravit.io -->

<svg
   style="isolation:isolate"
   viewBox="0 0 48 48"
   width="48pt"
   height="48pt"
   version="1.1"
   id="svg11"
   sodipodi:docname="folder-recent.svg"
   inkscape:version="1.1 (c4e8f9ed74, 2021-05-24)"
   xmlns:inkscape="http://www.inkscape.org/namespaces/inkscape"
   xmlns:sodipodi="http://sodipodi.sourceforge.net/DTD/sodipodi-0.dtd"
   xmlns="http://www.w3.org/2000/svg"
   xmlns:svg="http://www.w3.org/2000/svg">
  <defs
     id="defs15" />
  <sodipodi:namedview
     id="namedview13"
     pagecolor="#ffffff"
     bordercolor="#666666"
     borderopacity="1.0"
     inkscape:pageshadow="2"
     inkscape:pageopacity="0.0"
     inkscape:pagecheckerboard="0"
     inkscape:document-units="pt"
     showgrid="false"
     inkscape:zoom="10.3125"
     inkscape:cx="32"
     inkscape:cy="31.951515"
     inkscape:window-width="1600"
     inkscape:window-height="848"
     inkscape:window-x="0"
     inkscape:window-y="28"
     inkscape:window-maximized="1"
     inkscape:current-layer="svg11" />
  <linearGradient
     id="_lgradient_0"
     x1="0.21874999649848828"
     y1="0.17506041551987891"
     x2="1.098990208503709"
     y2="1.1181589937900303"
     gradientTransform="matrix(45,0,0,34,1.229,12.208)"
     gradientUnits="userSpaceOnUse">
    <stop
       offset="0%"
       stop-opacity="1"
       style="stop-color:rgb(252,203,144)"
       id="stop2" />
    <stop
       offset="83.91304347826087%"
       stop-opacity="1"
       style="stop-color:rgb(213,126,235)"
       id="stop4" />
  </linearGradient>
  <g
     id="g834"
     transform="translate(0,-5.208)">
    <path
       d="m 20.104,15.447 0.003,-0.002 25.816,0.02 c 0.169,10e-4 0.306,0.138 0.306,0.307 v 30.12 c 0,0.169 -0.137,0.306 -0.306,0.306 l -44.378,0.01 c -0.169,0 -0.307,-0.137 -0.307,-0.306 L 1.229,18.688 15.61,18.743 c 0.006,0 0.013,0 0.02,-10e-4 L 1.243,18.683 1.247,12.515 c 0,-0.169 0.138,-0.307 0.307,-0.307 H 15.61 c 0.085,0 0.209,0.041 0.277,0.092 z"
       fill-rule="evenodd"
       fill="url(#_lgradient_0)"
       id="path7"
       style="fill:url(#_lgradient_0)" />
    <path
       d="m 28.266,25.89 v 0 c -0.248,0.152 -0.575,0.074 -0.73,-0.174 v 0 c -0.154,-0.248 -0.078,-0.575 0.17,-0.729 v 0 c 1.506,-0.925 3.234,-1.417 5,-1.417 2.521,0 4.942,1.004 6.728,2.786 1.782,1.786 2.786,4.207 2.786,6.728 0,2.522 -1.004,4.942 -2.786,6.729 -1.786,1.781 -4.207,2.785 -6.728,2.785 -1.829,0 -3.621,-0.528 -5.159,-1.522 -1.538,-0.994 -2.759,-2.41 -3.515,-4.075 v 0 c -0.12,-0.266 -0.001,-0.579 0.264,-0.7 v 0 c 0.266,-0.121 0.581,-0.004 0.703,0.261 v 0 c 0.666,1.485 1.75,2.743 3.119,3.626 1.369,0.883 2.96,1.353 4.588,1.353 2.241,0 4.392,-0.893 5.978,-2.479 1.586,-1.585 2.479,-3.737 2.479,-5.978 0,-2.241 -0.893,-4.392 -2.479,-5.978 -1.586,-1.586 -3.737,-2.479 -5.978,-2.479 -1.57,0 -3.108,0.434 -4.44,1.263 v 0 z m -3.938,8.373 v 0 c 0.032,0.289 -0.178,0.549 -0.468,0.581 v 0 c -0.29,0.032 -0.552,-0.178 -0.584,-0.47 v 0 l -0.053,-0.529 v 0 c -0.032,-0.288 0.178,-0.549 0.468,-0.581 v 0 c 0.29,-0.032 0.552,0.179 0.584,0.47 v 0 l 0.053,0.529 v 0 z m 0.005,-2.384 v 0 c -0.049,0.286 -0.323,0.479 -0.61,0.431 v 0 c -0.288,-0.048 -0.481,-0.322 -0.431,-0.611 v 0 l 0.069,-0.422 v 0 c 0.049,-0.286 0.323,-0.479 0.61,-0.431 v 0 c 0.288,0.048 0.483,0.321 0.436,0.61 v 0 l -0.074,0.423 z m 12.258,2.474 v 0 c 0.274,0.102 0.414,0.406 0.312,0.679 v 0 c -0.103,0.273 -0.408,0.411 -0.682,0.309 v 0 l -4.572,-1.712 v -5.122 0 c 0,-0.292 0.236,-0.529 0.528,-0.529 v 0 c 0.292,0 0.529,0.237 0.529,0.529 v 0 4.387 z"
       fill-rule="evenodd"
       fill="#ffffff"
       id="path9" />
  </g>
</svg>
