<?xml version="1.0" encoding="UTF-8" standalone="no"?>
<!-- Generator: Gravit.io -->

<svg
   style="isolation:isolate"
   viewBox="0 0 16 16"
   width="16pt"
   height="16pt"
   version="1.1"
   id="svg11"
   sodipodi:docname="folder-recent.svg"
   inkscape:version="1.1 (1:1.1+202105261517+ce6663b3b7)"
   xmlns:inkscape="http://www.inkscape.org/namespaces/inkscape"
   xmlns:sodipodi="http://sodipodi.sourceforge.net/DTD/sodipodi-0.dtd"
   xmlns:xlink="http://www.w3.org/1999/xlink"
   xmlns="http://www.w3.org/2000/svg"
   xmlns:svg="http://www.w3.org/2000/svg">
  <defs
     id="defs15">
    <linearGradient
       inkscape:collect="always"
       xlink:href="#_lgradient_0"
       id="linearGradient929"
       x1="22.867304"
       y1="33.059158"
       x2="36.867302"
       y2="33.059158"
       gradientUnits="userSpaceOnUse"
       gradientTransform="translate(-21.867325,-25.059158)" />
    <linearGradient
       inkscape:collect="always"
       xlink:href="#_lgradient_0"
       id="linearGradient937"
       x1="27.46701"
       y1="8.9100323"
       x2="41.46701"
       y2="8.9100323"
       gradientUnits="userSpaceOnUse"
       gradientTransform="translate(-26.467033,-0.91003183)" />
  </defs>
  <sodipodi:namedview
     id="namedview13"
     pagecolor="#ffffff"
     bordercolor="#666666"
     borderopacity="1.0"
     inkscape:pageshadow="2"
     inkscape:pageopacity="0.0"
     inkscape:pagecheckerboard="0"
     inkscape:document-units="pt"
     showgrid="false"
     inkscape:zoom="10.65625"
     inkscape:cx="31.953079"
     inkscape:cy="32"
     inkscape:window-width="1600"
     inkscape:window-height="847"
     inkscape:window-x="0"
     inkscape:window-y="26"
     inkscape:window-maximized="1"
     inkscape:current-layer="svg11" />
  <linearGradient
     id="_lgradient_0"
     x1="0.21875"
     y1="0.17506042"
     x2="1.0989902"
     y2="1.1181589"
     gradientTransform="matrix(45,0,0,34,1.229,12.208)"
     gradientUnits="userSpaceOnUse">
    <stop
       offset="0%"
       stop-opacity="1"
       style="stop-color:rgb(252,203,144)"
       id="stop2" />
    <stop
       offset="83.91304347826087%"
       stop-opacity="1"
       style="stop-color:rgb(213,126,235)"
       id="stop4" />
  </linearGradient>
  <path
     d="m 4.7182007,2.69922 v 0 C 4.5354667,2.811218 4.2945217,2.75375 4.1803127,2.571011 v 0 c -0.113472,-0.182735 -0.05747,-0.42368 0.125262,-0.537152 v 0 c 1.109671,-0.681571 2.382919,-1.044093 3.684167,-1.044093 1.857557,0 3.6414313,0.739781 4.9574163,2.052818 1.313037,1.315985 2.052818,3.0998592 2.052818,4.9574162 0,1.858294 -0.739781,3.6414308 -2.052818,4.9581518 -1.315985,1.312301 -3.0998593,2.052082 -4.9574163,2.052082 -1.347668,0 -2.668074,-0.389048 -3.801324,-1.121461 -1.13325,-0.732412 -2.032924,-1.775769 -2.58997,-3.002596 v 0 c -0.08842,-0.195998 -7.36e-4,-0.426627 0.194524,-0.515784 v 0 c 0.195998,-0.08916 0.428101,-0.0029 0.517994,0.192314 v 0 c 0.490731,1.094198 1.289459,2.021134 2.298184,2.671758 1.008725,0.650624 2.181027,0.996936 3.380592,0.996936 1.651244,0 3.2361733,-0.657993 4.4047913,-1.82661 1.168618,-1.167882 1.82661,-2.7535468 1.82661,-4.4047908 0,-1.651244 -0.657992,-3.2361732 -1.82661,-4.4047912 -1.168618,-1.168618 -2.7535473,-1.82661 -4.4047913,-1.82661 -1.156828,0 -2.290078,0.319786 -3.271541,0.930621 z m -2.90165,6.1695072 v 0 c 0.02358,0.212944 -0.131156,0.404521 -0.344838,0.4281 v 0 c -0.213682,0.02358 -0.406732,-0.131157 -0.430311,-0.346312 v 0 l -0.03905,-0.389785 v 0 c -0.02358,-0.212208 0.131156,-0.404521 0.344838,-0.4281 v 0 c 0.213682,-0.02358 0.406732,0.131893 0.430311,0.346312 v 0 z m 0.0037,-1.756611 v 0 c -0.03611,0.210734 -0.237997,0.352943 -0.449468,0.317575 v 0 c -0.212208,-0.03537 -0.354417,-0.237261 -0.317575,-0.450206 v 0 l 0.05084,-0.310943 v 0 c 0.03611,-0.210735 0.237997,-0.352943 0.449469,-0.317575 v 0 c 0.212208,0.03537 0.35589,0.236523 0.321259,0.449468 v 0 z m 9.0321053,1.822926 v 0 c 0.201893,0.07516 0.305049,0.299154 0.229892,0.50031 v 0 c -0.07589,0.201155 -0.300628,0.302838 -0.50252,0.227681 v 0 L 7.2109247,8.4015742 v -3.7740612 0 c 0,-0.215155 0.173893,-0.389785 0.389048,-0.389785 v 0 c 0.215156,0 0.389785,0.17463 0.389785,0.389785 v 0 3.2324892 z"
     fill-rule="evenodd"
     fill="#ffffff"
     id="path9"
     style="fill:url(#linearGradient929);fill-opacity:1;stroke:url(#linearGradient937);stroke-width:0.7;stroke-miterlimit:4;stroke-dasharray:none" />
</svg>
