<?xml version="1.0" encoding="UTF-8" standalone="no"?>
<svg
   version="1.1"
   viewBox="0 0 16 16"
   id="svg7"
   sodipodi:docname="folder-open-recent.svg"
   width="16"
   height="16"
   inkscape:version="1.1.1 (1:1.1+202109281949+c3084ef5ed)"
   xmlns:inkscape="http://www.inkscape.org/namespaces/inkscape"
   xmlns:sodipodi="http://sodipodi.sourceforge.net/DTD/sodipodi-0.dtd"
   xmlns:xlink="http://www.w3.org/1999/xlink"
   xmlns="http://www.w3.org/2000/svg"
   xmlns:svg="http://www.w3.org/2000/svg">
  <sodipodi:namedview
     id="namedview9"
     pagecolor="#ffffff"
     bordercolor="#666666"
     borderopacity="1.0"
     inkscape:pageshadow="2"
     inkscape:pageopacity="0.0"
     inkscape:pagecheckerboard="0"
     showgrid="false"
     inkscape:zoom="31"
     inkscape:cx="5.4354839"
     inkscape:cy="8.4193548"
     inkscape:window-width="1600"
     inkscape:window-height="847"
     inkscape:window-x="0"
     inkscape:window-y="26"
     inkscape:window-maximized="1"
     inkscape:current-layer="svg7" />
  <defs
     id="defs3">
    <linearGradient
       inkscape:collect="always"
       id="linearGradient2618">
      <stop
         style="stop-color:#9955ff;stop-opacity:1"
         offset="0"
         id="stop2614" />
      <stop
         style="stop-color:#2affd5;stop-opacity:1"
         offset="1"
         id="stop2616" />
    </linearGradient>
    <style
       type="text/css"
       id="current-color-scheme">
            .ColorScheme-Text {
                color:#eff0f1;
            }
        </style>
    <linearGradient
       id="paint0_linear"
       x1="8"
       y1="15"
       x2="8"
       y2="1"
       gradientUnits="userSpaceOnUse"
       spreadMethod="pad">
      <stop
         id="stop6"
         style="stop-color:#d57eeb;stop-opacity:1" />
      <stop
         offset="1"
         id="stop8"
         style="stop-color:#fccb90;stop-opacity:1" />
    </linearGradient>
    <linearGradient
       inkscape:collect="always"
       xlink:href="#linearGradient2618"
       id="linearGradient2109"
       gradientUnits="userSpaceOnUse"
       gradientTransform="matrix(0.85889566,0,0,0.85889566,-0.63791912,-0.5576233)"
       x1="15.679678"
       y1="5.9142995"
       x2="15.705625"
       y2="18.649879" />
  </defs>
  <g
     id="g2858">
    <path
       id="path1842"
       style="fill:url(#linearGradient2109);fill-opacity:1;stroke:none;stroke-width:0;stroke-linecap:butt;stroke-linejoin:round;stroke-miterlimit:4;stroke-dasharray:none;stroke-opacity:1;paint-order:stroke fill markers"
       d="m 12.245927,8.8893525 c -1.903309,0 -3.4355466,1.5322375 -3.4355466,3.4355475 0,1.903309 1.5322376,3.435546 3.4355466,3.435546 1.903309,0 3.435547,-1.532238 3.435547,-3.435546 0,-1.90331 -1.532238,-3.4355475 -3.435547,-3.4355475 z m 0,0.8593755 c 1.42748,0 2.576172,1.148692 2.576172,2.576172 0,1.427479 -1.148692,2.578124 -2.576172,2.578124 -1.42748,0 -2.5761717,-1.150644 -2.5761717,-2.578124 0,-1.42748 1.1486917,-2.576172 2.5761717,-2.576172 z m -0.859375,0.859375 v 2.576171 h 1.71875 V 12.3249 h -0.859375 v -1.716797 z" />
    <path
       d="m 1.500001,0.99999999 c -0.27614,0 -0.5,0.22386001 -0.5,0.50000001 v 0.66667 3.5 1.16666 6.99997 0.6667 c 0,0.2761 0.22386,0.5 0.5,0.5 h 7.1666695 c 0.27614,0 0.5,-0.2239 0.5,-0.5 v -0.1667 c 0,-0.2761 -0.22386,-0.5 -0.5,-0.5 H 2.6666707 c -0.27615,0 -0.4999997,-0.2238 -0.4999997,-0.5 V 7.33333 c 0,-0.27614 0.2238497,-0.5 0.4999997,-0.5 H 13.3333 c 0.2762,0 0.5,0.22386 0.5,0.5 v 1.3333402 c 0,0.27614 0.2239,0.5 0.5,0.5 h 0.166699 c 0.2761,0 0.5,-0.22386 0.5,-0.5 V 5.66667 4.5 3.83333 c 0,-0.27614 -0.2239,-0.5 -0.5,-0.5 H 9.3828905 c -0.13261,0 -0.2597901,-0.05268 -0.35356,-0.14644 L 6.8451206,1.00267 c -0.0015,-0.00147 -0.0039,-0.00147 -0.0053,0 l -0.0019,0.00189 c -0.0017,0.00168 -0.0046,4.9e-4 -0.0046,-0.00189 v 0 C 6.8333206,1.0012 6.8321206,1 6.8306206,1 H 2.166671 Z M 2.166671,2.66667 c 0,-0.27615 0.2238497,-0.5 0.4999997,-0.5 h 3.48361 c 0.13243,0 0.25946,0.05254 0.3532,0.1461 l 0.6757298,0.67441 c 0.12788,0.12763 0.03749,0.34615 -0.1431898,0.34615 h -0.20002 c -0.0015,0 -0.0027,0.0012 -0.0027,0.00267 v 0 c 0,0.00238 -0.0029,0.00357 -0.0046,0.00189 L 6.8268007,3.336 c -0.0015,-0.00147 -0.0039,-0.00147 -0.0053,0 l -2.18422,2.18422 c -0.09377,0.09377 -0.22094,0.14645 -0.35355,0.14645 h -1.61711 c -0.27615,0 -0.4999997,-0.22386 -0.4999997,-0.5 z"
       fill="url(#paint0_linear)"
       id="path2"
       style="fill:url(#paint0_linear);fill-opacity:1" />
  </g>
</svg>
